<?xml version="1.0" encoding="utf-8"?>
<!-- Generator: Adobe Illustrator 15.0.0, SVG Export Plug-In . SVG Version: 6.00 Build 0)  -->
<!DOCTYPE svg PUBLIC "-//W3C//DTD SVG 1.1//EN" "http://www.w3.org/Graphics/SVG/1.1/DTD/svg11.dtd">
<svg version="1.1" id="Ebene_1" xmlns="http://www.w3.org/2000/svg" xmlns:xlink="http://www.w3.org/1999/xlink" x="0px" y="0px"
	 width="65px" height="65px" viewBox="0 0 65 65" enable-background="new 0 0 65 65" xml:space="preserve">
<g>
	<path d="M31.346,31.257L20.131,42.739c-5.999,5.59-10.36,8.385-13.083,8.385c-1.14,0-2.065-0.356-2.777-1.068
		c-0.712-0.712-1.068-1.629-1.068-2.75c0-3.275,2.341-7.548,7.022-12.817c3.098-3.507,7.44-7.627,13.03-12.363
		c4.682-3.987,7.022-6.052,7.022-6.195c0-0.231-0.143-0.347-0.427-0.347c-1.389,0-4.638,1.629-9.746,4.886
		c-5.163,3.293-7.744,5.447-7.744,6.462c0,0.214,0.133,0.32,0.4,0.32c0.338,0,1.006-0.275,2.003-0.828l2.056-1.122
		c0.321-0.018,0.481,0.143,0.481,0.481c0,0.41-0.873,1.024-2.617,1.842c-1.745,0.819-2.929,1.228-3.551,1.228
		c-1.122,0-1.683-0.551-1.683-1.655c0-0.997,1.335-2.634,4.005-4.913c2.189-1.869,5.02-3.702,8.491-5.5
		c3.969-2.065,7.067-3.097,9.292-3.097c0.962,0,1.442,0.41,1.442,1.228c0,1.246-1.496,3.249-4.488,6.008
		C12.664,35.308,4.895,44.42,4.885,48.261c0,1.001,0.445,1.501,1.335,1.501c2.457,0,8.215-4.183,17.275-12.55
		c5.145-4.735,10.575-10.058,16.289-15.968c0.623-0.711,1.611-1.691,2.964-2.937c0.444-0.32,0.774-0.48,0.988-0.48
		c0.267,0,0.542,0.165,0.827,0.494c0.285,0.33,0.428,0.627,0.428,0.895c-0.004,0.392-1.599,2.395-4.783,6.008
		c-3.986,4.522-6.932,8.162-8.836,10.922c-3.186,4.539-4.778,8.152-4.778,10.841c0,1.78,0.748,2.67,2.243,2.67
		c1.353,0,3.062-0.801,5.126-2.403c1.977-1.53,5.162-4.583,9.56-9.158c4.361-4.521,8.201-9.137,11.521-13.846
		c3.32-4.708,4.979-7.48,4.979-8.317c0-0.356-0.16-0.534-0.48-0.534c-0.818,0-2.813,1.353-5.98,4.059l-4.86,4.139
		c-0.143-0.071-0.213-0.196-0.213-0.374c0-1.104,1.646-2.986,4.939-5.647c3.293-2.661,5.669-3.992,7.129-3.992
		c1.086,0,1.629,0.579,1.629,1.735c0,2.101-2.172,6.079-6.515,11.936c-3.134,4.237-6.187,7.958-9.159,11.162
		c-3.702,3.987-6.925,7.04-9.666,9.158c-2.83,2.189-5.403,3.284-7.717,3.284c-2.83,0-4.245-1.718-4.245-5.153
		c0-2.296,0.721-4.842,2.163-7.637C27.866,36.465,29.298,34.194,31.346,31.257z"/>
</g>
</svg>
