<?xml version="1.0" encoding="utf-8"?>
<!-- Generator: Adobe Illustrator 15.0.0, SVG Export Plug-In . SVG Version: 6.00 Build 0)  -->
<!DOCTYPE svg PUBLIC "-//W3C//DTD SVG 1.1//EN" "http://www.w3.org/Graphics/SVG/1.1/DTD/svg11.dtd">
<svg version="1.1"
	 id="svg1" xmlns:dc="http://purl.org/dc/elements/1.1/" xmlns:cc="http://creativecommons.org/ns#" xmlns:rdf="http://www.w3.org/1999/02/22-rdf-syntax-ns#" xmlns:svg="http://www.w3.org/2000/svg"
	 xmlns="http://www.w3.org/2000/svg" xmlns:xlink="http://www.w3.org/1999/xlink" x="0px" y="0px" width="48px" height="48px"
	 viewBox="0 0 48 48" enable-background="new 0 0 48 48" xml:space="preserve">
<radialGradient id="path3099_1_" cx="-280.9941" cy="1104.8887" r="9.688" gradientTransform="matrix(2.0635 0 0 0.7345 602.9423 -772.776)" gradientUnits="userSpaceOnUse">
	<stop  offset="0" style="stop-color:#000000"/>
	<stop  offset="1" style="stop-color:#000000;stop-opacity:0"/>
</radialGradient>
<path id="path3099" opacity="0.4091" fill="url(#path3099_1_)" enable-background="new    " d="M43.102,38.766
	c0,3.93-8.949,7.115-19.991,7.115c-11.04,0-19.99-3.186-19.99-7.115c0-3.931,8.95-7.117,19.99-7.117
	C34.15,31.648,43.102,34.835,43.102,38.766z"/>
<path id="path5378" fill="#D4572D" d="M21.218,36.723c0.055-0.082,0.942,1.064,0.942,1.064c3.893-4.287,13.828-12.299,16.539-18.981
	C33.218,24.96,24.262,34.861,21.218,36.723z"/>
<linearGradient id="path7876_1_" gradientUnits="userSpaceOnUse" x1="70.4434" y1="1728.4375" x2="60.4742" y2="1711.8483" gradientTransform="matrix(0.8952 0 0 0.4664 -38.5027 -786.9631)">
	<stop  offset="0" style="stop-color:#F5A108;stop-opacity:0"/>
	<stop  offset="1" style="stop-color:#FEFDC3;stop-opacity:0.7425"/>
</linearGradient>
<path id="path7876" fill="url(#path7876_1_)" d="M14.51,9.139c-4.536-0.226-6.649,2.724-7.792,5.53
	c-1.134,3.695,0.469,10.675,8.327,10.144c4.482,0,6.263-4.652,8.622-5.86c2.144-0.821,2.312-0.894,4.578-0.894
	c3.147,0,8.84-2.306,8.84-4.594c-0.969-1.836-3.537-5.106-8.256-4.549c-3.005,0.354-5.847,2.528-6.589,3.61
	C20.42,10.901,18.098,9.139,14.51,9.139z"/>
<path id="path920" fill="#C74B00" stroke="#AE3300" stroke-width="0.9511" d="M22.79,10.592c7.849-7.946,18.635-0.623,18.563,6.913
	c-0.064,6.889-5.25,10.188-18.28,22.442C9.436,28.548,4.631,25.92,4.702,17.746C4.773,9.285,14.007,2.935,22.79,10.592z"/>
<linearGradient id="path922_1_" gradientUnits="userSpaceOnUse" x1="19.854" y1="844.0879" x2="57.0967" y2="844.0879" gradientTransform="matrix(0.9453 0 0 0.957 -13.8215 -790.8264)">
	<stop  offset="0" style="stop-color:#FF6600"/>
	<stop  offset="1" style="stop-color:#FF6600;stop-opacity:0"/>
</linearGradient>
<path id="path922" opacity="0.625" fill="url(#path922_1_)" enable-background="new    " d="M4.974,17.468
	c-0.207,6.871,0.751,5.783,2.48,7.959c1.7,2.141,9.115,0.793,15.77-5.561c6.734-6.428,13.6-2.79,16.928-6.369
	c-2.479-4.303-10.217-9.518-17.34-2.292C13.683,2.855,5.18,10.521,4.974,17.468z"/>
<linearGradient id="path3109_1_" gradientUnits="userSpaceOnUse" x1="-528.2021" y1="29.1738" x2="-545.5552" y2="-6.8886">
	<stop  offset="0" style="stop-color:#FFFFFF"/>
	<stop  offset="1" style="stop-color:#FFFFFF;stop-opacity:0.4611"/>
</linearGradient>
<path id="path3109" opacity="0.392" fill="none" stroke="url(#path3109_1_)" stroke-width="0.9511" enable-background="new    " d="
	M22.882,11.784c7.462-8.166,17.661-1.343,17.597,5.677c-0.062,6.417-5.27,9.949-17.408,21.364
	C10.366,28.206,5.512,25.375,5.578,17.761C5.645,9.879,14.699,3.658,22.882,11.784z"/>
<g enable-background="new    ">
	<path d="M15.252,25.92v-8.221h3.063c0.54,0,0.951,0.026,1.235,0.078c0.399,0.067,0.733,0.196,1.002,0.384
		c0.27,0.189,0.487,0.453,0.651,0.793c0.165,0.34,0.247,0.714,0.247,1.122c0,0.699-0.22,1.291-0.659,1.774
		c-0.439,0.484-1.233,0.727-2.382,0.727h-2.083v3.342H15.252z M16.327,21.607h2.099c0.694,0,1.188-0.131,1.479-0.393
		s0.438-0.63,0.438-1.104c0-0.344-0.086-0.639-0.257-0.883c-0.172-0.245-0.398-0.407-0.679-0.485
		c-0.181-0.049-0.515-0.073-1.002-0.073h-2.077V21.607z"/>
	<path d="M22.681,25.92v-5.956h0.897v0.903c0.229-0.422,0.44-0.701,0.634-0.835s0.407-0.202,0.64-0.202
		c0.336,0,0.678,0.109,1.025,0.326l-0.344,0.936c-0.244-0.146-0.487-0.219-0.731-0.219c-0.218,0-0.414,0.067-0.587,0.199
		c-0.174,0.133-0.297,0.317-0.371,0.552c-0.111,0.359-0.166,0.751-0.166,1.178v3.118H22.681z"/>
	<path d="M26.098,22.942c0-1.103,0.303-1.919,0.908-2.45c0.506-0.441,1.123-0.662,1.851-0.662c0.809,0,1.47,0.269,1.983,0.805
		c0.513,0.537,0.77,1.278,0.77,2.224c0,0.766-0.113,1.369-0.341,1.808c-0.228,0.439-0.558,0.781-0.991,1.023
		c-0.434,0.243-0.908,0.365-1.421,0.365c-0.823,0-1.489-0.268-1.997-0.803C26.352,24.718,26.098,23.948,26.098,22.942z
		 M27.123,22.942c0,0.763,0.164,1.333,0.492,1.712c0.329,0.381,0.742,0.57,1.241,0.57c0.495,0,0.906-0.191,1.235-0.572
		c0.328-0.381,0.492-0.963,0.492-1.744c0-0.736-0.165-1.294-0.495-1.674c-0.331-0.379-0.741-0.569-1.232-0.569
		c-0.499,0-0.912,0.188-1.241,0.566C27.287,21.609,27.123,22.179,27.123,22.942z"/>
</g>
<g id="flowRoot3009">
</g>
<radialGradient id="path8643_1_" cx="1123.6699" cy="-932.9346" r="16.959" gradientTransform="matrix(-0.0041 0.4703 -0.5789 -0.0051 -497.5967 -529.1592)" gradientUnits="userSpaceOnUse">
	<stop  offset="0" style="stop-color:#0000FF"/>
	<stop  offset="1" style="stop-color:#000059"/>
</radialGradient>
<path id="path8643" fill="url(#path8643_1_)" stroke="#000052" stroke-width="0.5627" stroke-linecap="round" stroke-linejoin="round" stroke-miterlimit="10" d="
	M43.02,1.042L32.818,0.953L32.755,8.18l-4.558-0.04l9.619,11.27l9.658-11.07l-4.521-0.076L43.02,1.042L43.02,1.042z"/>
<radialGradient id="path8645_1_" cx="151.5928" cy="-625.3369" r="17.1699" gradientTransform="matrix(-0.01 1.1419 -0.8839 -0.0077 -502.0063 -164.6759)" gradientUnits="userSpaceOnUse">
	<stop  offset="0" style="stop-color:#FFFFFF"/>
	<stop  offset="1" style="stop-color:#FFFFFF;stop-opacity:0"/>
</radialGradient>
<path id="path8645" opacity="0.508" fill="url(#path8645_1_)" enable-background="new    " d="M46.873,8.59l-4.205-0.037
	l-0.006-3.662C39.4,11,33.544,9.746,33.17,13.528l4.658,5.366L46.873,8.59z"/>
<path id="path8658" opacity="0.4813" fill="none" stroke="#FFFFFF" stroke-width="0.5627" stroke-miterlimit="10" enable-background="new    " d="
	M42.385,1.594l-9.023-0.079l-0.063,7.249L29.436,8.73l8.398,9.802l8.432-9.68l-3.871-0.021L42.385,1.594z"/>
</svg>
