<?xml version="1.0" encoding="utf-8"?>
<!-- Generator: Adobe Illustrator 15.0.0, SVG Export Plug-In . SVG Version: 6.00 Build 0)  -->
<!DOCTYPE svg PUBLIC "-//W3C//DTD SVG 1.1//EN" "http://www.w3.org/Graphics/SVG/1.1/DTD/svg11.dtd">
<svg version="1.1"
	 id="svg1" xmlns:dc="http://purl.org/dc/elements/1.1/" xmlns:cc="http://creativecommons.org/ns#" xmlns:rdf="http://www.w3.org/1999/02/22-rdf-syntax-ns#" xmlns:svg="http://www.w3.org/2000/svg"
	 xmlns="http://www.w3.org/2000/svg" xmlns:xlink="http://www.w3.org/1999/xlink" x="0px" y="0px" width="48px" height="48px"
	 viewBox="0 0 48 48" enable-background="new 0 0 48 48" xml:space="preserve">
<radialGradient id="path3099_1_" cx="-280.9946" cy="1104.8887" r="9.687" gradientTransform="matrix(2.0635 0 0 0.7345 606.1962 -772.3688)" gradientUnits="userSpaceOnUse">
	<stop  offset="0" style="stop-color:#000000"/>
	<stop  offset="1" style="stop-color:#000000;stop-opacity:0"/>
</radialGradient>
<path id="path3099" opacity="0.4091" fill="url(#path3099_1_)" enable-background="new    " d="M46.355,39.172
	c0,3.93-8.949,7.115-19.99,7.115s-19.99-3.186-19.99-7.115c0-3.929,8.95-7.115,19.99-7.115
	C37.406,32.057,46.355,35.242,46.355,39.172z"/>
<path id="path5378" fill="#D4572D" d="M24.269,35.503c0.055-0.083,0.942,1.063,0.942,1.063c3.893-4.287,13.828-12.299,16.539-18.981
	C36.27,23.74,27.313,33.641,24.269,35.503z"/>
<linearGradient id="path7876_1_" gradientUnits="userSpaceOnUse" x1="70.4434" y1="1728.4365" x2="60.4742" y2="1711.8473" gradientTransform="matrix(0.8952 0 0 0.4664 -35.4519 -788.1838)">
	<stop  offset="0" style="stop-color:#F5A108;stop-opacity:0"/>
	<stop  offset="1" style="stop-color:#FEFDC3;stop-opacity:0.7425"/>
</linearGradient>
<path id="path7876" fill="url(#path7876_1_)" d="M17.561,7.918c-4.536-0.226-6.649,2.724-7.792,5.53
	c-1.134,3.695,0.469,10.675,8.327,10.144c4.482,0,6.263-4.653,8.622-5.861c2.146-0.82,2.313-0.894,4.578-0.894
	c3.147,0,8.841-2.306,8.841-4.594c-0.969-1.836-3.537-5.105-8.257-4.548c-3.005,0.354-5.848,2.528-6.59,3.61
	C23.471,9.68,21.148,7.918,17.561,7.918z"/>
<path id="path920" fill="#C74B00" stroke="#AE3300" stroke-width="0.9511" d="M25.841,9.372c7.849-7.946,18.636-0.622,18.563,6.914
	c-0.064,6.889-5.25,10.188-18.279,22.44C12.487,27.328,7.682,24.699,7.752,16.525C7.824,8.064,17.058,1.715,25.841,9.372z"/>
<linearGradient id="path922_1_" gradientUnits="userSpaceOnUse" x1="19.854" y1="844.0879" x2="57.0967" y2="844.0879" gradientTransform="matrix(0.9453 0 0 0.957 -10.7707 -792.0471)">
	<stop  offset="0" style="stop-color:#FF6600"/>
	<stop  offset="1" style="stop-color:#FF6600;stop-opacity:0"/>
</linearGradient>
<path id="path922" opacity="0.625" fill="url(#path922_1_)" enable-background="new    " d="M8.025,16.248
	c-0.206,6.871,0.751,5.783,2.48,7.959c1.7,2.141,9.115,0.792,15.771-5.56c6.733-6.429,13.6-2.79,16.928-6.369
	c-2.479-4.304-10.217-9.518-17.34-2.292C16.734,1.635,8.231,9.3,8.025,16.248z"/>
<linearGradient id="path3109_1_" gradientUnits="userSpaceOnUse" x1="-528.2021" y1="29.1738" x2="-545.5552" y2="-6.8886">
	<stop  offset="0" style="stop-color:#FFFFFF"/>
	<stop  offset="1" style="stop-color:#FFFFFF;stop-opacity:0.4611"/>
</linearGradient>
<path id="path3109" opacity="0.392" fill="none" stroke="url(#path3109_1_)" stroke-width="0.9511" enable-background="new    " d="
	M25.934,10.564c7.463-8.167,17.66-1.344,17.596,5.676c-0.062,6.417-5.27,9.95-17.407,21.366
	C13.417,26.986,8.563,24.155,8.629,16.541C8.695,8.659,17.75,2.438,25.934,10.564z"/>
<g enable-background="new    ">
	<path d="M18.304,24.699v-8.221h3.063c0.54,0,0.951,0.026,1.235,0.078c0.399,0.067,0.733,0.196,1.002,0.384
		c0.27,0.189,0.487,0.453,0.651,0.793c0.165,0.34,0.247,0.714,0.247,1.122c0,0.699-0.22,1.291-0.659,1.774
		c-0.439,0.484-1.233,0.727-2.382,0.727h-2.083v3.342H18.304z M19.378,20.387h2.099c0.694,0,1.188-0.131,1.479-0.393
		s0.438-0.63,0.438-1.104c0-0.344-0.086-0.639-0.257-0.883c-0.172-0.245-0.398-0.407-0.679-0.485
		c-0.181-0.049-0.515-0.073-1.002-0.073h-2.077V20.387z"/>
	<path d="M25.732,24.699v-5.956h0.896v0.903c0.229-0.422,0.44-0.701,0.635-0.835c0.193-0.135,0.406-0.202,0.639-0.202
		c0.337,0,0.678,0.109,1.025,0.326l-0.344,0.936c-0.243-0.146-0.486-0.219-0.73-0.219c-0.219,0-0.414,0.067-0.588,0.199
		c-0.174,0.133-0.297,0.317-0.371,0.552c-0.11,0.359-0.166,0.751-0.166,1.178v3.118H25.732z"/>
	<path d="M29.148,21.721c0-1.103,0.303-1.919,0.909-2.45c0.506-0.441,1.122-0.662,1.851-0.662c0.809,0,1.469,0.269,1.982,0.805
		c0.514,0.537,0.77,1.278,0.77,2.224c0,0.766-0.113,1.369-0.34,1.808c-0.228,0.439-0.559,0.781-0.992,1.023
		c-0.434,0.243-0.907,0.365-1.42,0.365c-0.824,0-1.49-0.268-1.998-0.803C29.402,23.497,29.148,22.727,29.148,21.721z M30.174,21.721
		c0,0.763,0.164,1.333,0.493,1.713c0.329,0.38,0.742,0.569,1.241,0.569c0.494,0,0.906-0.19,1.234-0.572s0.493-0.963,0.493-1.744
		c0-0.736-0.165-1.294-0.495-1.674c-0.331-0.379-0.742-0.569-1.232-0.569c-0.499,0-0.912,0.188-1.241,0.566
		C30.338,20.389,30.174,20.958,30.174,21.721z"/>
</g>
<g id="flowRoot3009">
</g>
<radialGradient id="path8643_1_" cx="-2140.1646" cy="905.6064" r="16.961" gradientTransform="matrix(-0.0022 -0.5006 0.6145 -0.0027 -550.1688 -1051.7837)" gradientUnits="userSpaceOnUse">
	<stop  offset="0" style="stop-color:#0000FF"/>
	<stop  offset="1" style="stop-color:#000059"/>
</radialGradient>
<path id="path8643" fill="url(#path8643_1_)" stroke="#000052" stroke-width="0.5981" stroke-linecap="round" stroke-linejoin="round" stroke-miterlimit="10" d="
	M5.614,20.387l10.829-0.048l-0.034-7.691l4.837-0.021L10.879,0.768L0.783,12.682l4.8,0.019L5.614,20.387z"/>
<radialGradient id="path8645_1_" cx="-1192.7549" cy="578.832" r="17.1728" gradientTransform="matrix(-0.0053 -1.2153 0.9383 -0.0041 -550.5833 -1439.7363)" gradientUnits="userSpaceOnUse">
	<stop  offset="0" style="stop-color:#FFFFFF"/>
	<stop  offset="1" style="stop-color:#FFFFFF;stop-opacity:0"/>
</radialGradient>
<path id="path8645" opacity="0.508" fill="url(#path8645_1_)" enable-background="new    " d="M1.418,12.408l4.464-0.02l0.057,3.896
	c3.378-6.547,9.611-5.294,9.955-9.323l-5.018-5.646L1.418,12.408z"/>
<path id="path8658" opacity="0.4813" fill="none" stroke="#FFFFFF" stroke-width="0.5981" stroke-miterlimit="10" enable-background="new    " d="
	M6.28,19.79l9.578-0.042l-0.034-7.715l4.102-0.018L10.875,1.7L2.062,12.119l4.108-0.031L6.28,19.79L6.28,19.79z"/>
</svg>
