<?xml version="1.0" encoding="UTF-8" standalone="no"?>
<!-- Created with Inkscape (http://www.inkscape.org/) -->

<svg
   xmlns:dc="http://purl.org/dc/elements/1.1/"
   xmlns:cc="http://creativecommons.org/ns#"
   xmlns:rdf="http://www.w3.org/1999/02/22-rdf-syntax-ns#"
   xmlns:svg="http://www.w3.org/2000/svg"
   xmlns="http://www.w3.org/2000/svg"
   xmlns:xlink="http://www.w3.org/1999/xlink"
   xmlns:sodipodi="http://sodipodi.sourceforge.net/DTD/sodipodi-0.dtd"
   xmlns:inkscape="http://www.inkscape.org/namespaces/inkscape"
   width="48px"
   height="48px"
   id="svg4198"
   sodipodi:version="0.32"
   inkscape:version="0.48.2 r9819"
   sodipodi:docname="Icon_Woped4.svg"
   version="1.1">
  <defs
     id="defs4200">
    <linearGradient
       inkscape:collect="always"
       id="linearGradient3558">
      <stop
         style="stop-color:#000000;stop-opacity:1;"
         offset="0"
         id="stop3560" />
      <stop
         style="stop-color:#000000;stop-opacity:0;"
         offset="1"
         id="stop3562" />
    </linearGradient>
    <radialGradient
       inkscape:collect="always"
       xlink:href="#linearGradient3558"
       id="radialGradient3564"
       cx="22.571428"
       cy="30.857143"
       fx="22.571428"
       fy="30.857143"
       r="15.571428"
       gradientTransform="matrix(1, 0, 0, 0.651376, 4.63865e-15, 10.7575)"
       gradientUnits="userSpaceOnUse" />
    <linearGradient
       id="linearGradient15218">
      <stop
         style="stop-color:#f8f8f7;stop-opacity:1;"
         offset="0"
         id="stop15220" />
      <stop
         id="stop2269"
         offset="0.59928656"
         style="stop-color:#e8e8e8;stop-opacity:1;" />
      <stop
         style="stop-color:#e2e2de;stop-opacity:1;"
         offset="1"
         id="stop15222" />
    </linearGradient>
    <linearGradient
       inkscape:collect="always"
       xlink:href="#linearGradient15218"
       id="linearGradient15224"
       x1="22.308331"
       y1="18.992140"
       x2="35.785294"
       y2="39.498238"
       gradientUnits="userSpaceOnUse"
       gradientTransform="matrix(1.06084, 0, 0, 0.987595, 4.64116, 4.10829)" />
    <linearGradient
       inkscape:collect="always"
       id="linearGradient2259">
      <stop
         style="stop-color:#ffffff;stop-opacity:1;"
         offset="0"
         id="stop2261" />
      <stop
         style="stop-color:#ffffff;stop-opacity:0;"
         offset="1"
         id="stop2263" />
    </linearGradient>
    <linearGradient
       inkscape:collect="always"
       xlink:href="#linearGradient2259"
       id="linearGradient2265"
       x1="26.076092"
       y1="26.696676"
       x2="30.811172"
       y2="42.007351"
       gradientUnits="userSpaceOnUse"
       gradientTransform="matrix(0.993566, 0, 0, 1, 6.21986, 4.03341)" />
    <linearGradient
       inkscape:collect="always"
       id="linearGradient2216">
      <stop
         style="stop-color:#000000;stop-opacity:1;"
         offset="0"
         id="stop2218" />
      <stop
         style="stop-color:#000000;stop-opacity:0;"
         offset="1"
         id="stop2220" />
    </linearGradient>
    <linearGradient
       inkscape:collect="always"
       xlink:href="#linearGradient2216"
       id="linearGradient2222"
       x1="36.8125"
       y1="39.15625"
       x2="39.0625"
       y2="42.0625"
       gradientUnits="userSpaceOnUse"
       gradientTransform="translate(6.16184, 4.03341)" />
    <linearGradient
       id="linearGradient2224">
      <stop
         style="stop-color:#ffa000;stop-opacity:1;"
         offset="0"
         id="stop3799" />
      <stop
         id="stop3801"
         offset="0.56296295"
         style="stop-color:#ff8e00;stop-opacity:1;" />
      <stop
         style="stop-color:#ff6c00;stop-opacity:1;"
         offset="1"
         id="stop2228" />
    </linearGradient>
    <linearGradient
       inkscape:collect="always"
       xlink:href="#linearGradient15218"
       id="linearGradient2240"
       gradientUnits="userSpaceOnUse"
       gradientTransform="matrix(1.3427, 0, 0, 1.23538, -8.21961, -6.57719)"
       x1="20.794008"
       y1="18.378813"
       x2="35.596001"
       y2="39.60046" />
    <radialGradient
       inkscape:collect="always"
       xlink:href="#linearGradient2224"
       id="radialGradient3795"
       cx="30.4375"
       cy="30.09375"
       fx="30.4375"
       fy="30.09375"
       r="10.612"
       gradientTransform="matrix(1,0,0,1.1089568,0,-3.2789199)"
       gradientUnits="userSpaceOnUse" />
    <linearGradient
       id="SVGID_1_"
       gradientUnits="userSpaceOnUse"
       x1="32.5005"
       y1="41.569302"
       x2="32.5005"
       y2="2.0651">
      <stop
         offset="0"
         style="stop-color:#EE7B1D"
         id="stop13" />
      <stop
         offset="0.95"
         style="stop-color:#F19016;stop-opacity:0.8778"
         id="stop15" />
    </linearGradient>
    <linearGradient
       id="SVGID_2_"
       gradientUnits="userSpaceOnUse"
       x1="42.5"
       y1="13.6318"
       x2="42.5"
       y2="-5.7793999"
       gradientTransform="matrix(-1,0,0,-1,75,57.2539)">
      <stop
         offset="0"
         style="stop-color:#EE7B1D"
         id="stop20" />
      <stop
         offset="0.95"
         style="stop-color:#F19016;stop-opacity:0.8778"
         id="stop22" />
    </linearGradient>
    <linearGradient
       inkscape:collect="always"
       xlink:href="#SVGID_1_"
       id="linearGradient3140"
       gradientUnits="userSpaceOnUse"
       x1="32.5005"
       y1="41.569302"
       x2="32.5005"
       y2="2.0651" />
    <linearGradient
       inkscape:collect="always"
       xlink:href="#SVGID_2_"
       id="linearGradient3142"
       gradientUnits="userSpaceOnUse"
       gradientTransform="matrix(-1,0,0,-1,75,57.2539)"
       x1="42.5"
       y1="13.6318"
       x2="42.5"
       y2="-5.7793999" />
  </defs>
  <sodipodi:namedview
     id="base"
     pagecolor="#ffffff"
     bordercolor="#bebebe"
     borderopacity="1.0000000"
     inkscape:pageopacity="0.0"
     inkscape:pageshadow="2"
     inkscape:zoom="5.6568543"
     inkscape:cx="51.871015"
     inkscape:cy="23.177686"
     inkscape:current-layer="layer1"
     showgrid="true"
     inkscape:grid-bbox="true"
     inkscape:document-units="px"
     inkscape:window-width="1680"
     inkscape:window-height="988"
     inkscape:window-x="1272"
     inkscape:window-y="-8"
     inkscape:showpageshadow="false"
     inkscape:window-maximized="1"
     inkscape:snap-global="true" />
  <metadata
     id="metadata4203">
    <rdf:RDF>
      <cc:Work
         rdf:about="">
        <dc:format>image/svg+xml</dc:format>
        <dc:type
           rdf:resource="http://purl.org/dc/dcmitype/StillImage" />
        <dc:title></dc:title>
        <dc:date>2005-10-29</dc:date>
        <dc:creator>
          <cc:Agent>
            <dc:title>Andreas Nilsson</dc:title>
          </cc:Agent>
        </dc:creator>
        <dc:subject>
          <rdf:Bag>
            <rdf:li>justify</rdf:li>
            <rdf:li>center</rdf:li>
            <rdf:li>format</rdf:li>
          </rdf:Bag>
        </dc:subject>
        <cc:license
           rdf:resource="http://creativecommons.org/licenses/by-sa/2.0/" />
      </cc:Work>
      <cc:License
         rdf:about="http://creativecommons.org/licenses/by-sa/2.0/">
        <cc:permits
           rdf:resource="http://web.resource.org/cc/Reproduction" />
        <cc:permits
           rdf:resource="http://web.resource.org/cc/Distribution" />
        <cc:requires
           rdf:resource="http://web.resource.org/cc/Notice" />
        <cc:requires
           rdf:resource="http://web.resource.org/cc/Attribution" />
        <cc:permits
           rdf:resource="http://web.resource.org/cc/DerivativeWorks" />
        <cc:requires
           rdf:resource="http://web.resource.org/cc/ShareAlike" />
      </cc:License>
    </rdf:RDF>
  </metadata>
  <g
     id="layer1"
     inkscape:label="Layer 1"
     inkscape:groupmode="layer">
    <path
       sodipodi:type="arc"
       style="opacity:0.47368421;color:#000000;fill:url(#radialGradient3564);fill-opacity:1;fill-rule:nonzero;stroke:none;stroke-width:1;stroke-linecap:round;stroke-linejoin:round;marker:none;marker-start:none;marker-mid:none;marker-end:none;stroke-miterlimit:4;stroke-dasharray:none;stroke-dashoffset:0;stroke-opacity:1;visibility:visible;display:inline;overflow:visible"
       id="path3556"
       sodipodi:cx="22.571428"
       sodipodi:cy="30.857143"
       sodipodi:rx="15.571428"
       sodipodi:ry="10.142858"
       d="M 38.142857 30.857143 A 15.571428 10.142858 0 1 1  7,30.857143 A 15.571428 10.142858 0 1 1  38.142857 30.857143 z"
       transform="matrix(1.47233, 0, 0, 0.266385, -9.15907, 37.482)" />
    <rect
       style="opacity:1;fill:url(#linearGradient2240);fill-opacity:1;fill-rule:evenodd;stroke:#888a85;stroke-width:0.99999976;stroke-linecap:butt;stroke-linejoin:miter;stroke-miterlimit:4;stroke-dasharray:none;stroke-dashoffset:0;stroke-opacity:1"
       id="rect4238"
       width="38.996792"
       height="45.003101"
       x="4.5016017"
       y="1.4968988"
       rx="0.56650788"
       ry="0.56650823" />
    <rect
       style="opacity:1;color:#000000;fill:#999999;fill-opacity:1;fill-rule:evenodd;stroke:none;stroke-width:1;stroke-linecap:butt;stroke-linejoin:miter;marker:none;marker-start:none;marker-mid:none;marker-end:none;stroke-miterlimit:4;stroke-dasharray:none;stroke-dashoffset:0;stroke-opacity:1;visibility:visible;display:inline;overflow:visible"
       id="rect4248"
       width="30"
       height="2"
       x="-39"
       y="10"
       transform="scale(-1, 1)" />
    <rect
       y="16"
       x="-39"
       height="2"
       width="30"
       id="rect4250"
       style="opacity:1;color:#000000;fill:#999999;fill-opacity:1;fill-rule:evenodd;stroke:none;stroke-width:1;stroke-linecap:butt;stroke-linejoin:miter;marker:none;marker-start:none;marker-mid:none;marker-end:none;stroke-miterlimit:4;stroke-dasharray:none;stroke-dashoffset:0;stroke-opacity:1;visibility:visible;display:inline;overflow:visible"
       transform="scale(-1, 1)" />
    <rect
       style="opacity:1;color:#000000;fill:#999999;fill-opacity:1;fill-rule:evenodd;stroke:none;stroke-width:1;stroke-linecap:butt;stroke-linejoin:miter;marker:none;marker-start:none;marker-mid:none;marker-end:none;stroke-miterlimit:4;stroke-dasharray:none;stroke-dashoffset:0;stroke-opacity:1;visibility:visible;display:inline;overflow:visible"
       id="rect4252"
       width="30"
       height="2"
       x="-39"
       y="22"
       transform="scale(-1, 1)" />
    <rect
       y="28"
       x="-39"
       height="2"
       width="30"
       id="rect4254"
       style="opacity:1;color:#000000;fill:#999999;fill-opacity:1;fill-rule:evenodd;stroke:none;stroke-width:1;stroke-linecap:butt;stroke-linejoin:miter;marker:none;marker-start:none;marker-mid:none;marker-end:none;stroke-miterlimit:4;stroke-dasharray:none;stroke-dashoffset:0;stroke-opacity:1;visibility:visible;display:inline;overflow:visible"
       transform="scale(-1, 1)" />
    <rect
       style="opacity:1;color:#000000;fill:#999999;fill-opacity:1;fill-rule:evenodd;stroke:none;stroke-width:1;stroke-linecap:butt;stroke-linejoin:miter;marker:none;marker-start:none;marker-mid:none;marker-end:none;stroke-miterlimit:4;stroke-dasharray:none;stroke-dashoffset:0;stroke-opacity:1;visibility:visible;display:inline;overflow:visible"
       id="rect4256"
       width="30"
       height="2"
       x="-39"
       y="34"
       transform="scale(-1, 1)" />
    <rect
       style="opacity:1;fill:none;fill-opacity:1;fill-rule:evenodd;stroke:#ffffff;stroke-width:0.99999982;stroke-linecap:butt;stroke-linejoin:miter;stroke-miterlimit:4;stroke-dasharray:none;stroke-dashoffset:0;stroke-opacity:1"
       id="rect2245"
       width="37.025566"
       height="43.022316"
       x="5.4997125"
       y="2.4997177"
       rx="0"
       ry="0" />
    <g
       id="Ebene_3"
       transform="matrix(0.31977401,0,0,0.30518596,20.714689,24.662913)">
      <rect
         style="fill:#ffffff"
         y="0"
         x="0"
         width="65"
         height="65"
         id="rect5" />
      <rect
         style="fill:#ffffff"
         x="65"
         y="65"
         width="0.625"
         height="0"
         id="rect7" />
    </g>
    <g
       id="Ebene_2"
       transform="matrix(0.33555412,0,0,0.32115635,20.135546,24.121778)">
      <g
         id="g10">
        <linearGradient
           id="linearGradient3044"
           gradientUnits="userSpaceOnUse"
           x1="32.5005"
           y1="41.569302"
           x2="32.5005"
           y2="2.0651">
          <stop
             offset="0"
             style="stop-color:#EE7B1D"
             id="stop3046" />
          <stop
             offset="0.95"
             style="stop-color:#F19016;stop-opacity:0.8778"
             id="stop3048" />
        </linearGradient>
        <rect
           style="opacity:0.95999995;fill:url(#linearGradient3140)"
           x="1.614"
           y="1.872"
           enable-background="new    "
           width="61.771"
           height="39.696999"
           id="rect17" />
        <linearGradient
           id="linearGradient3051"
           gradientUnits="userSpaceOnUse"
           x1="42.5"
           y1="13.6318"
           x2="42.5"
           y2="-5.7793999"
           gradientTransform="matrix(-1,0,0,-1,75,57.2539)">
          <stop
             offset="0"
             style="stop-color:#EE7B1D"
             id="stop3053" />
          <stop
             offset="0.95"
             style="stop-color:#F19016;stop-opacity:0.8778"
             id="stop3055" />
        </linearGradient>
        <rect
           style="opacity:0.95999995;fill:url(#linearGradient3142)"
           x="1.614"
           y="43.622002"
           enable-background="new    "
           width="61.771"
           height="19.506001"
           id="rect24" />
        <g
           id="g26">
          <path
             style="fill:#ffffff"
             inkscape:connector-curvature="0"
             d="M 21.236,36.606 14.795,8.721 h 5.577 l 4.067,19.155 4.932,-19.155 h 6.479 l 4.73,19.478 4.141,-19.478 h 5.484 L 43.653,36.607 H 37.874 L 32.5,15.759 27.145,36.607 h -5.909 z"
             id="path28" />
        </g>
        <g
           id="g30">
          <path
             style="fill:#ffffff"
             inkscape:connector-curvature="0"
             d="M 7.606,59.047 4.851,47.992 h 2.386 l 1.74,7.594 2.111,-7.594 h 2.771 l 2.024,7.722 1.771,-7.722 h 2.347 l -2.804,11.055 h -2.473 l -2.3,-8.265 -2.291,8.265 H 7.606 z"
             id="path32" />
          <path
             style="fill:#ffffff"
             inkscape:connector-curvature="0"
             d="m 20.373,54.93 c 0,-0.704 0.181,-1.385 0.543,-2.043 0.362,-0.659 0.875,-1.162 1.54,-1.509 0.664,-0.347 1.405,-0.521 2.225,-0.521 1.265,0 2.302,0.394 3.11,1.181 0.808,0.787 1.213,1.78 1.213,2.982 0,1.211 -0.408,2.216 -1.225,3.012 -0.816,0.797 -1.844,1.195 -3.083,1.195 -0.767,0 -1.498,-0.166 -2.193,-0.497 C 21.807,58.398 21.278,57.912 20.916,57.271 20.554,56.63 20.373,55.85 20.373,54.93 z m 2.268,0.113 c 0,0.794 0.197,1.402 0.591,1.824 0.394,0.423 0.879,0.634 1.457,0.634 0.577,0 1.062,-0.211 1.453,-0.634 0.391,-0.422 0.586,-1.035 0.586,-1.84 0,-0.784 -0.195,-1.387 -0.586,-1.81 -0.392,-0.422 -0.876,-0.633 -1.453,-0.633 -0.578,0 -1.063,0.211 -1.457,0.633 -0.394,0.424 -0.591,1.032 -0.591,1.826 z"
             id="path34" />
          <path
             style="fill:#ffffff"
             inkscape:connector-curvature="0"
             d="M 30.752,59.047 V 47.992 h 3.74 c 1.418,0 2.342,0.056 2.772,0.166 0.661,0.166 1.215,0.526 1.661,1.082 0.446,0.556 0.67,1.273 0.67,2.153 0,0.679 -0.129,1.249 -0.386,1.711 -0.258,0.463 -0.585,0.826 -0.98,1.09 -0.396,0.264 -0.8,0.438 -1.209,0.524 -0.557,0.105 -1.362,0.158 -2.418,0.158 h -1.52 v 4.17 h -2.33 z m 2.331,-9.185 v 3.137 h 1.275 c 0.919,0 1.533,-0.058 1.843,-0.173 0.31,-0.116 0.553,-0.297 0.729,-0.543 0.176,-0.246 0.264,-0.533 0.264,-0.859 0,-0.402 -0.123,-0.734 -0.37,-0.996 -0.247,-0.261 -0.559,-0.425 -0.938,-0.49 -0.278,-0.05 -0.837,-0.075 -1.677,-0.075 h -1.126 z"
             id="path36" />
          <path
             style="fill:#ffffff"
             inkscape:connector-curvature="0"
             d="m 46.337,56.498 2.205,0.354 c -0.283,0.774 -0.731,1.363 -1.343,1.769 -0.611,0.404 -1.377,0.606 -2.296,0.606 -1.454,0 -2.53,-0.455 -3.229,-1.364 -0.552,-0.729 -0.827,-1.649 -0.827,-2.76 0,-1.327 0.362,-2.367 1.087,-3.118 0.725,-0.752 1.641,-1.128 2.748,-1.128 1.245,0 2.227,0.394 2.945,1.181 0.72,0.787 1.063,1.992 1.032,3.615 h -5.544 c 0.016,0.629 0.194,1.117 0.535,1.467 0.341,0.35 0.767,0.524 1.275,0.524 0.347,0 0.639,-0.091 0.875,-0.271 0.237,-0.181 0.416,-0.473 0.537,-0.875 z m 0.126,-2.142 c -0.016,-0.613 -0.182,-1.079 -0.496,-1.398 -0.315,-0.319 -0.698,-0.479 -1.149,-0.479 -0.483,0 -0.883,0.168 -1.197,0.505 -0.315,0.337 -0.47,0.794 -0.465,1.372 h 3.307 z"
             id="path38" />
          <path
             style="fill:#ffffff"
             inkscape:connector-curvature="0"
             d="m 50.472,47.992 h 4.26 c 0.961,0 1.693,0.07 2.197,0.211 0.678,0.191 1.258,0.531 1.74,1.019 0.483,0.487 0.851,1.085 1.103,1.791 0.252,0.706 0.378,1.577 0.378,2.612 0,0.91 -0.118,1.694 -0.354,2.353 -0.289,0.805 -0.701,1.456 -1.237,1.953 -0.404,0.377 -0.95,0.671 -1.638,0.883 -0.515,0.155 -1.202,0.233 -2.063,0.233 H 50.472 V 47.992 z m 2.331,1.87 v 7.322 h 1.74 c 0.65,0 1.12,-0.035 1.409,-0.105 0.378,-0.091 0.691,-0.244 0.941,-0.46 0.249,-0.217 0.453,-0.572 0.61,-1.067 0.157,-0.495 0.236,-1.17 0.236,-2.024 0,-0.854 -0.079,-1.511 -0.236,-1.968 -0.157,-0.458 -0.378,-0.814 -0.662,-1.071 -0.283,-0.256 -0.643,-0.43 -1.078,-0.521 -0.326,-0.07 -0.964,-0.105 -1.914,-0.105 h -1.046 z"
             id="path40" />
        </g>
      </g>
    </g>
  </g>
</svg>
