<?xml version="1.0" standalone="no"?>
<!DOCTYPE svg PUBLIC "-//W3C//DTD SVG 20010904//EN"
 "http://www.w3.org/TR/2001/REC-SVG-20010904/DTD/svg10.dtd">
<svg version="1.0" xmlns="http://www.w3.org/2000/svg"
 width="203.000000pt" height="136.000000pt" viewBox="0 0 203.000000 136.000000"
 preserveAspectRatio="xMidYMid meet">
<metadata>
Created by potrace 1.11, written by Peter Selinger 2001-2013
</metadata>
<g transform="translate(0.000000,136.000000) scale(0.100000,-0.100000)"
fill="#000000" stroke="none">
<path d="M0 680 l0 -680 1015 0 1015 0 0 680 0 680 -1015 0 -1015 0 0 -680z
m1087 302 c61 -32 88 -75 88 -143 0 -73 -32 -122 -122 -185 -109 -76 -173
-144 -173 -184 0 -6 52 -10 150 -10 l150 0 0 -50 0 -50 -210 0 -210 0 0 29 c0
42 58 123 154 216 104 102 130 151 124 241 -5 78 -32 112 -95 121 -60 8 -99
-16 -107 -67 -6 -36 -9 -40 -36 -40 -30 0 -30 0 -30 60 l0 59 38 10 c20 5 46
12 57 15 49 12 180 -1 222 -22z m-467 -17 c52 -30 72 -76 68 -156 -3 -55 -9
-73 -32 -104 -38 -49 -103 -77 -193 -83 l-73 -5 0 -93 c0 -101 10 -124 56
-124 17 0 24 -5 24 -20 0 -19 -7 -20 -135 -20 -125 0 -135 1 -135 19 0 13 9
20 30 25 l30 6 0 265 0 266 -30 6 c-21 4 -30 11 -30 25 0 19 7 19 193 16 171
-3 196 -5 227 -23z m1230 -40 l0 -65 -30 0 c-27 0 -30 3 -30 33 0 48 -15 57
-92 57 l-68 0 0 -269 c0 -289 -1 -281 51 -281 12 0 19 -7 19 -20 0 -19 -7 -20
-140 -20 -133 0 -140 1 -140 20 0 13 7 20 19 20 52 0 51 -8 51 281 l0 269 -68
0 c-77 0 -92 -9 -92 -57 0 -30 -3 -33 -30 -33 l-30 0 0 65 0 65 290 0 290 0 0
-65z"/>
<path d="M390 805 l0 -145 30 0 c76 0 122 44 136 127 15 96 -36 163 -123 163
l-43 0 0 -145z"/>
</g>
</svg>
