<?xml version="1.0" encoding="UTF-8" standalone="no"?>
<!DOCTYPE svg PUBLIC "-//W3C//DTD SVG 1.1//EN" "http://www.w3.org/Graphics/SVG/1.1/DTD/svg11.dtd">
<svg width="100%" height="100%" viewBox="0 0 50 40" version="1.1" xmlns="http://www.w3.org/2000/svg" xmlns:xlink="http://www.w3.org/1999/xlink" xml:space="preserve" xmlns:serif="http://www.serif.com/" style="fill-rule:evenodd;clip-rule:evenodd;stroke-miterlimit:1;">
    <g transform="matrix(1,0,0,1,-342,-102)">
        <g transform="matrix(1,0,0,1,60,0)">
            <g transform="matrix(1,0,0,3.32711,0,-333.712)">
                <rect x="282.782" y="138.9" width="27.237" height="3.81" style="fill:url(#_Radial1);"/>
            </g>
            <g transform="matrix(0.0450399,0,0,0.0513087,277.447,89.5371)">
                <g transform="matrix(6.69303,0,0,6.59838,-791.838,-5287.32)">
                    <path d="M228.95,840.437C228.95,839.164 227.789,838.13 226.36,838.13L136.003,838.13C134.573,838.13 133.413,839.164 133.413,840.437L133.413,948.043C133.413,949.315 134.573,950.349 136.003,950.349L226.36,950.349C227.789,950.349 228.95,949.315 228.95,948.043L228.95,840.437Z" style="fill:rgb(136,138,133);"/>
                </g>
                <g transform="matrix(6.32969,0,0,6.21757,-726.008,-4946.78)">
                    <rect x="133.413" y="838.13" width="95.537" height="112.218" style="fill:white;"/>
                </g>
                <g transform="matrix(5.89727,0,0,5.88954,-647.662,-4653.45)">
                    <rect x="133.413" y="838.13" width="95.537" height="112.218" style="fill:url(#_Linear2);"/>
                </g>
                <g transform="matrix(1,0,0,1,0.346596,8.22454)">
                    <rect x="181.842" y="387.699" width="477.25" height="34.569" style="fill:rgb(153,153,153);"/>
                    <g transform="matrix(0.739166,0,0,1,47.4307,100)">
                        <rect x="181.842" y="387.699" width="477.25" height="34.569" style="fill:rgb(153,153,153);"/>
                    </g>
                    <g transform="matrix(0.5,0,0,1,90.921,200.001)">
                        <rect x="181.842" y="387.699" width="477.25" height="34.569" style="fill:rgb(153,153,153);"/>
                    </g>
                    <g transform="matrix(0.25,0,0,1,136.382,300.001)">
                        <rect x="181.842" y="387.699" width="477.25" height="34.569" style="fill:rgb(153,153,153);"/>
                    </g>
                    <g transform="matrix(0.5,0,0,1,90.921,400.002)">
                        <rect x="181.842" y="387.699" width="477.25" height="34.569" style="fill:rgb(153,153,153);"/>
                    </g>
                </g>
            </g>
            <g transform="matrix(-1.82839,0,-0,1.82839,901.461,-96.8204)">
                <g transform="matrix(0.979203,0,0,0.731489,23.052,30.4125)">
                    <path d="M307.849,120.39C307.849,120.3 307.822,120.213 307.775,120.149C307.727,120.086 307.663,120.05 307.595,120.05C306.359,120.05 300.977,120.05 299.741,120.05C299.673,120.05 299.609,120.086 299.561,120.149C299.514,120.213 299.487,120.3 299.487,120.39C299.487,121.916 299.487,128.134 299.487,129.66C299.487,129.75 299.514,129.837 299.561,129.9C299.609,129.964 299.673,130 299.741,130C300.977,130 306.359,130 307.595,130C307.663,130 307.727,129.964 307.775,129.9C307.822,129.837 307.849,129.75 307.849,129.66C307.849,128.134 307.849,121.916 307.849,120.39Z" style="fill:rgb(125,199,40);"/>
                </g>
                <g transform="matrix(0.546929,0,0,0.546929,156.405,53.2124)">
                    <rect x="293.371" y="119.873" width="14.629" height="1.72" style="fill:white;fill-opacity:0.5;"/>
                </g>
                <g transform="matrix(7.41283e-17,1.17338,-0.969689,5.75502e-17,450.668,-242.869)">
                    <path d="M310.665,121.839C310.704,121.766 310.771,121.721 310.843,121.721C310.916,121.721 310.983,121.766 311.022,121.839C311.791,123.3 314.814,129.044 315.636,130.606C315.678,130.685 315.68,130.785 315.643,130.867C315.606,130.949 315.535,131 315.457,131C313.866,131 307.821,131 306.229,131C306.152,131 306.081,130.949 306.044,130.867C306.006,130.785 306.009,130.685 306.051,130.606C306.873,129.044 309.896,123.3 310.665,121.839Z" style="fill:rgb(125,199,40);"/>
                </g>
                <g transform="matrix(7.41283e-17,1.17338,-0.969689,5.75502e-17,450.668,-241.775)">
                    <path d="M306.229,130.436L306.044,130.303C306.006,130.221 306.009,130.121 306.051,130.042L309.911,122.386L310.377,123.271L306.983,130.042C306.941,130.121 306.939,130.221 306.976,130.303L307.162,130.436L306.229,130.436Z" style="fill:white;fill-opacity:0.5;"/>
                </g>
            </g>
            <g transform="matrix(1,0,0,1,22.7716,-18.1184)">
                <g transform="matrix(0.636986,0,0,0.636986,112.874,46.3388)">
                    <rect x="298.019" y="120" width="7.849" height="7.849" style="fill:none;stroke:rgb(51,51,51);stroke-width:2.62px;"/>
                </g>
                <g transform="matrix(1.25,0,0,1.25,-80.9439,-29.7228)">
                    <circle cx="300.121" cy="124" r="2" style="fill:none;stroke:rgb(51,51,51);stroke-width:1.33px;"/>
                </g>
                <g transform="matrix(1.25,0,0,1.25,-69.9439,-18.7228)">
                    <circle cx="300.121" cy="124" r="2" style="fill:none;stroke:rgb(51,51,51);stroke-width:1.33px;"/>
                </g>
                <g transform="matrix(2,0,0,1,-303.708,-0.5)">
                    <path d="M300.208,125.777L303.208,125.777" style="fill:none;stroke:rgb(51,51,51);stroke-width:1.05px;"/>
                </g>
                <g transform="matrix(1,0,0,2,-26.3656,-106.769)">
                    <path d="M331.574,117.273L331.574,120.273" style="fill:none;stroke:rgb(51,51,51);stroke-width:1.05px;"/>
                </g>
            </g>
        </g>
    </g>
    <defs>
        <radialGradient id="_Radial1" cx="0" cy="0" r="1" gradientUnits="userSpaceOnUse" gradientTransform="matrix(1.92537e-16,0.945072,-13.6183,2.50631e-16,296.4,141.765)"><stop offset="0" style="stop-color:black;stop-opacity:1"/><stop offset="1" style="stop-color:black;stop-opacity:0"/></radialGradient>
        <linearGradient id="_Linear2" x1="0" y1="0" x2="1" y2="0" gradientUnits="userSpaceOnUse" gradientTransform="matrix(95.5373,0,0,112.218,133.413,894.24)"><stop offset="0" style="stop-color:rgb(248,248,248);stop-opacity:1"/><stop offset="1" style="stop-color:rgb(228,228,228);stop-opacity:1"/></linearGradient>
    </defs>
</svg>
