<?xml version="1.0" standalone="no"?>
<!DOCTYPE svg PUBLIC "-//W3C//DTD SVG 20010904//EN"
 "http://www.w3.org/TR/2001/REC-SVG-20010904/DTD/svg10.dtd">
<svg version="1.0" xmlns="http://www.w3.org/2000/svg"
 width="203.000000pt" height="136.000000pt" viewBox="0 0 203.000000 136.000000"
 preserveAspectRatio="xMidYMid meet">
<metadata>
Created by potrace 1.14, written by Peter Selinger 2001-2017
</metadata>
<g transform="translate(0.000000,136.000000) scale(0.100000,-0.100000)"
fill="#000000" stroke="none">
<path d="M0 680 l0 -680 1015 0 1015 0 0 680 0 680 -1015 0 -1015 0 0 -680z
m1142 309 c55 -28 88 -82 88 -144 0 -78 -47 -148 -192 -287 l-123 -118 141 0
c134 0 143 1 178 25 20 14 39 25 41 25 6 0 -37 -104 -49 -117 -9 -10 -62 -11
-224 -6 -116 3 -212 9 -212 12 0 3 21 21 46 40 86 65 229 209 262 264 83 137
31 260 -109 259 -59 -1 -98 -20 -138 -69 -41 -50 -49 -35 -17 31 41 85 114
120 221 109 28 -3 67 -14 87 -24z m-412 -8 c0 -15 3 -49 6 -75 8 -56 -9 -63
-30 -12 -21 50 -52 66 -145 73 l-81 6 0 -274 c0 -155 4 -281 10 -289 5 -8 29
-20 52 -27 37 -10 22 -11 -117 -11 -151 0 -158 1 -116 14 25 8 48 19 53 26 4
7 8 136 8 287 l0 274 -82 -7 c-95 -8 -121 -21 -139 -71 -19 -51 -29 -43 -29
24 0 99 -28 91 311 91 l299 0 0 -29z m1038 4 c114 -34 172 -137 128 -224 -43
-82 -134 -118 -268 -107 l-80 7 3 -119 c4 -134 11 -149 70 -158 83 -14 32 -24
-115 -24 -149 0 -206 11 -128 24 70 12 67 -4 67 300 0 151 -3 278 -7 282 -4 4
-29 13 -55 20 -44 12 -31 13 143 13 143 1 203 -3 242 -14z"/>
<path d="M1593 962 l-33 -3 0 -134 0 -134 35 -7 c106 -20 185 39 185 138 0 95
-75 151 -187 140z"/>
</g>
</svg>
