<?xml version="1.0" encoding="UTF-8" standalone="no"?>
<!-- Created with Inkscape (http://www.inkscape.org/) -->

<svg
   xmlns:dc="http://purl.org/dc/elements/1.1/"
   xmlns:cc="http://creativecommons.org/ns#"
   xmlns:rdf="http://www.w3.org/1999/02/22-rdf-syntax-ns#"
   xmlns:svg="http://www.w3.org/2000/svg"
   xmlns="http://www.w3.org/2000/svg"
   xmlns:xlink="http://www.w3.org/1999/xlink"
   xmlns:sodipodi="http://sodipodi.sourceforge.net/DTD/sodipodi-0.dtd"
   xmlns:inkscape="http://www.inkscape.org/namespaces/inkscape"
   version="1.0"
   width="48"
   height="48"
   id="svg2"
   inkscape:version="0.48.1 r9760"
   sodipodi:docname="analyze_metric_builder.svg">
  <sodipodi:namedview
     pagecolor="#ffffff"
     bordercolor="#666666"
     borderopacity="1"
     objecttolerance="10"
     gridtolerance="10"
     guidetolerance="10"
     inkscape:pageopacity="0"
     inkscape:pageshadow="2"
     inkscape:window-width="1312"
     inkscape:window-height="824"
     id="namedview84"
     showgrid="false"
     inkscape:zoom="12.625"
     inkscape:cx="24"
     inkscape:cy="24"
     inkscape:window-x="0"
     inkscape:window-y="0"
     inkscape:window-maximized="0"
     inkscape:current-layer="svg2" />
  <metadata
     id="metadata252">
    <rdf:RDF>
      <cc:Work
         rdf:about="">
        <dc:format>image/svg+xml</dc:format>
        <dc:type
           rdf:resource="http://purl.org/dc/dcmitype/StillImage" />
        <dc:title />
        <dc:creator>
          <cc:Agent>
            <dc:title>Lapo Calamandrei</dc:title>
          </cc:Agent>
        </dc:creator>
        <dc:subject>
          <rdf:Bag>
            <rdf:li>search</rdf:li>
            <rdf:li>find</rdf:li>
            <rdf:li>system</rdf:li>
            <rdf:li>binoculars</rdf:li>
            <rdf:li>gear</rdf:li>
          </rdf:Bag>
        </dc:subject>
        <cc:license
           rdf:resource="http://creativecommons.org/licenses/GPL/2.0/" />
      </cc:Work>
      <cc:License
         rdf:about="http://creativecommons.org/licenses/GPL/2.0/">
        <cc:permits
           rdf:resource="http://web.resource.org/cc/Reproduction" />
        <cc:permits
           rdf:resource="http://web.resource.org/cc/Distribution" />
        <cc:requires
           rdf:resource="http://web.resource.org/cc/Notice" />
        <cc:permits
           rdf:resource="http://web.resource.org/cc/DerivativeWorks" />
        <cc:requires
           rdf:resource="http://web.resource.org/cc/ShareAlike" />
        <cc:requires
           rdf:resource="http://web.resource.org/cc/SourceCode" />
      </cc:License>
    </rdf:RDF>
  </metadata>
  <defs
     id="defs4">
    <linearGradient
       id="linearGradient6817">
      <stop
         id="stop6819"
         style="stop-color:#ffffff;stop-opacity:1"
         offset="0" />
      <stop
         id="stop6821"
         style="stop-color:#eeeeec;stop-opacity:1"
         offset="1" />
    </linearGradient>
    <linearGradient
       id="linearGradient5493">
      <stop
         id="stop5495"
         style="stop-color:#d3d7cf;stop-opacity:1"
         offset="0" />
      <stop
         id="stop5497"
         style="stop-color:#f6eef0;stop-opacity:1"
         offset="0.26851073" />
      <stop
         id="stop5499"
         style="stop-color:#ffffff;stop-opacity:1"
         offset="0.34727389" />
      <stop
         id="stop5501"
         style="stop-color:#eedee2;stop-opacity:1"
         offset="0.59278351" />
      <stop
         id="stop5503"
         style="stop-color:#cb9ea7;stop-opacity:1"
         offset="1" />
    </linearGradient>
    <linearGradient
       id="linearGradient7672">
      <stop
         id="stop7674"
         style="stop-color:#000000;stop-opacity:1"
         offset="0" />
      <stop
         id="stop7676"
         style="stop-color:#000000;stop-opacity:0"
         offset="1" />
    </linearGradient>
    <linearGradient
       id="linearGradient7598">
      <stop
         id="stop7600"
         style="stop-color:#ffffff;stop-opacity:1"
         offset="0" />
      <stop
         id="stop7602"
         style="stop-color:#ffffff;stop-opacity:0"
         offset="1" />
    </linearGradient>
    <linearGradient
       id="linearGradient7586">
      <stop
         id="stop7588"
         style="stop-color:#ffffff;stop-opacity:1"
         offset="0" />
      <stop
         id="stop7590"
         style="stop-color:#ffffff;stop-opacity:0"
         offset="1" />
    </linearGradient>
    <linearGradient
       id="linearGradient2818">
      <stop
         id="stop2820"
         style="stop-color:#ffffff;stop-opacity:1"
         offset="0" />
      <stop
         id="stop2822"
         style="stop-color:#ffffff;stop-opacity:0"
         offset="1" />
    </linearGradient>
    <linearGradient
       id="linearGradient2631">
      <stop
         id="stop2633"
         style="stop-color:#010101;stop-opacity:1"
         offset="0" />
      <stop
         id="stop2635"
         style="stop-color:#959595;stop-opacity:1"
         offset="1" />
    </linearGradient>
    <linearGradient
       id="linearGradient2591">
      <stop
         id="stop2593"
         style="stop-color:#7a7a7a;stop-opacity:1"
         offset="0" />
      <stop
         id="stop2595"
         style="stop-color:#000000;stop-opacity:1"
         offset="1" />
    </linearGradient>
    <linearGradient
       id="linearGradient6949">
      <stop
         id="stop6951"
         style="stop-color:#888a85;stop-opacity:1"
         offset="0" />
      <stop
         id="stop6953"
         style="stop-color:#555753;stop-opacity:1"
         offset="1" />
    </linearGradient>
    <linearGradient
       id="linearGradient6985">
      <stop
         id="stop6987"
         style="stop-color:#888a85;stop-opacity:1"
         offset="0" />
      <stop
         id="stop6991"
         style="stop-color:#babdb6;stop-opacity:1"
         offset="0.34042552" />
      <stop
         id="stop6989"
         style="stop-color:#555753;stop-opacity:1"
         offset="1" />
    </linearGradient>
    <linearGradient
       id="linearGradient7428">
      <stop
         id="stop7430"
         style="stop-color:#888a85;stop-opacity:0"
         offset="0" />
      <stop
         id="stop7432"
         style="stop-color:#babdb6;stop-opacity:1"
         offset="1" />
    </linearGradient>
    <linearGradient
       id="linearGradient7469">
      <stop
         id="stop7471"
         style="stop-color:#555753;stop-opacity:1"
         offset="0" />
      <stop
         id="stop7473"
         style="stop-color:#888a85;stop-opacity:1"
         offset="1" />
    </linearGradient>
    <linearGradient
       id="linearGradient7743">
      <stop
         id="stop7745"
         style="stop-color:#ffffff;stop-opacity:1"
         offset="0" />
      <stop
         id="stop7747"
         style="stop-color:#ffffff;stop-opacity:0"
         offset="1" />
    </linearGradient>
    <linearGradient
       id="linearGradient7769">
      <stop
         id="stop7771"
         style="stop-color:#ffffff;stop-opacity:1"
         offset="0" />
      <stop
         id="stop7773"
         style="stop-color:#ffffff;stop-opacity:0"
         offset="1" />
    </linearGradient>
    <linearGradient
       id="linearGradient7798">
      <stop
         id="stop7800"
         style="stop-color:#f9f9f9;stop-opacity:1"
         offset="0" />
      <stop
         id="stop7802"
         style="stop-color:#f9f9f9;stop-opacity:0"
         offset="1" />
    </linearGradient>
    <linearGradient
       id="linearGradient7927">
      <stop
         id="stop7929"
         style="stop-color:#000000;stop-opacity:1"
         offset="0" />
      <stop
         id="stop7931"
         style="stop-color:#000000;stop-opacity:0"
         offset="1" />
    </linearGradient>
    <linearGradient
       id="linearGradient7941">
      <stop
         id="stop7943"
         style="stop-color:#000000;stop-opacity:1"
         offset="0" />
      <stop
         id="stop7945"
         style="stop-color:#000000;stop-opacity:0"
         offset="1" />
    </linearGradient>
    <linearGradient
       id="linearGradient5791">
      <stop
         id="stop5793"
         style="stop-color:#000000;stop-opacity:1"
         offset="0" />
      <stop
         id="stop5795"
         style="stop-color:#000000;stop-opacity:0"
         offset="1" />
    </linearGradient>
    <radialGradient
       cx="34.206291"
       cy="24.753864"
       r="4.7729707"
       fx="34.206291"
       fy="24.753864"
       id="radialGradient7678"
       xlink:href="#linearGradient7672"
       gradientUnits="userSpaceOnUse"
       gradientTransform="matrix(1,0,0,0.759259,0,5.95926)" />
    <radialGradient
       cx="34.206291"
       cy="24.753864"
       r="4.7729707"
       fx="34.206291"
       fy="24.753864"
       id="radialGradient7680"
       xlink:href="#linearGradient7672"
       gradientUnits="userSpaceOnUse"
       gradientTransform="matrix(1,0,0,0.759259,0,5.95926)" />
    <radialGradient
       cx="11.313708"
       cy="19.083185"
       r="9.8994951"
       fx="11.313708"
       fy="19.083185"
       id="radialGradient5686"
       xlink:href="#linearGradient5791"
       gradientUnits="userSpaceOnUse"
       gradientTransform="matrix(1.81886,0,0,0.545978,4.41607,20.581)" />
    <linearGradient
       x1="24.999897"
       y1="-34.974133"
       x2="28.726213"
       y2="1.4193407"
       id="linearGradient5690"
       xlink:href="#linearGradient7586"
       gradientUnits="userSpaceOnUse" />
    <linearGradient
       x1="26.568039"
       y1="-15.856338"
       x2="26.568039"
       y2="-33.089272"
       id="linearGradient5692"
       xlink:href="#linearGradient7598"
       gradientUnits="userSpaceOnUse" />
    <linearGradient
       x1="8.6218872"
       y1="9.2498398"
       x2="21.996887"
       y2="33.621563"
       id="linearGradient6807"
       xlink:href="#linearGradient5493"
       gradientUnits="userSpaceOnUse"
       gradientTransform="translate(10,-1)" />
    <linearGradient
       x1="21.081476"
       y1="13.108311"
       x2="22.024235"
       y2="22.654253"
       id="linearGradient6823"
       xlink:href="#linearGradient6817"
       gradientUnits="userSpaceOnUse"
       gradientTransform="matrix(0.38241036,0,0,0.37851594,19.689741,22.622455)" />
    <radialGradient
       cx="11.313708"
       cy="19.083185"
       r="9.8994951"
       fx="11.313708"
       fy="19.083185"
       id="radialGradient3911"
       xlink:href="#linearGradient5791"
       gradientUnits="userSpaceOnUse"
       gradientTransform="matrix(1.81886,0,0,0.545978,4.41607,20.581)" />
    <linearGradient
       x1="24.999897"
       y1="-34.974133"
       x2="28.726213"
       y2="1.4193407"
       id="linearGradient3913"
       xlink:href="#linearGradient7586"
       gradientUnits="userSpaceOnUse" />
    <linearGradient
       x1="26.568039"
       y1="-15.856338"
       x2="26.568039"
       y2="-33.089272"
       id="linearGradient3915"
       xlink:href="#linearGradient7598"
       gradientUnits="userSpaceOnUse" />
    <filter
       x="-0.15225822"
       y="-1.6748405"
       width="1.3045164"
       height="4.3496809"
       color-interpolation-filters="sRGB"
       id="filter3940">
      <feGaussianBlur
         id="feGaussianBlur3942"
         stdDeviation="2.0935506" />
    </filter>
    <radialGradient
       inkscape:collect="always"
       xlink:href="#linearGradient7672"
       id="radialGradient3062"
       gradientUnits="userSpaceOnUse"
       gradientTransform="matrix(0.44065911,0,0,0.33219599,10.543747,23.555194)"
       cx="34.206291"
       cy="24.753864"
       fx="34.206291"
       fy="24.753864"
       r="4.7729707" />
    <radialGradient
       inkscape:collect="always"
       xlink:href="#linearGradient7672"
       id="radialGradient3065"
       gradientUnits="userSpaceOnUse"
       gradientTransform="matrix(0.44065911,0,0,0.33219599,17.809559,23.555194)"
       cx="34.206291"
       cy="24.753864"
       fx="34.206291"
       fy="24.753864"
       r="4.7729707" />
    <linearGradient
       inkscape:collect="always"
       xlink:href="#linearGradient6817"
       id="linearGradient3073"
       gradientUnits="userSpaceOnUse"
       gradientTransform="matrix(0.38241036,0,0,0.37851594,19.689741,22.622455)"
       x1="21.081476"
       y1="13.108311"
       x2="22.024235"
       y2="22.654253" />
    <linearGradient
       inkscape:collect="always"
       xlink:href="#linearGradient5493"
       id="linearGradient3075"
       gradientUnits="userSpaceOnUse"
       gradientTransform="translate(10,-1)"
       x1="8.6218872"
       y1="9.2498398"
       x2="21.996887"
       y2="33.621563" />
    <radialGradient
       inkscape:collect="always"
       xlink:href="#linearGradient7672"
       id="radialGradient3077"
       gradientUnits="userSpaceOnUse"
       gradientTransform="matrix(0.44065911,0,0,0.33219599,17.809559,23.555194)"
       cx="34.206291"
       cy="24.753864"
       fx="34.206291"
       fy="24.753864"
       r="4.7729707" />
    <radialGradient
       inkscape:collect="always"
       xlink:href="#linearGradient7672"
       id="radialGradient3079"
       gradientUnits="userSpaceOnUse"
       gradientTransform="matrix(0.44065911,0,0,0.33219599,10.543747,23.555194)"
       cx="34.206291"
       cy="24.753864"
       fx="34.206291"
       fy="24.753864"
       r="4.7729707" />
  </defs>
  <path
     d="m 5.75,20.75 11.5,-8.25 12,18.75 16.75,-29"
     id="path3133"
     style="fill:none;stroke:#ff7300;stroke-width:1px;stroke-linecap:butt;stroke-linejoin:miter;stroke-opacity:1" />
  <path
     d="M 5,2.5 17.75,32 24.25,10.75 47,34.25"
     id="path3905"
     style="fill:none;stroke:#0000ff;stroke-width:1px;stroke-linecap:butt;stroke-linejoin:miter;stroke-opacity:1" />
  <path
     d="m -37.25,26.875 a 1.75,1.375 0 1 1 -3.5,0 1.75,1.375 0 1 1 3.5,0 z"
     id="path3909"
     style="opacity:0.01000001;fill:none;stroke:#0000ff;stroke-width:1.29999995;stroke-linecap:square;stroke-linejoin:miter;stroke-miterlimit:4;stroke-opacity:1;stroke-dasharray:none;stroke-dashoffset:0" />
  <path
     d="m 40,34.5 a 16.5,1.5 0 1 1 -33,0 16.5,1.5 0 1 1 33,0 z"
     transform="matrix(1.0909091,0,0,1.3333333,-5.1363638,-12.249999)"
     id="path5517"
     style="opacity:0.70033671;color:#000000;fill:#000000;fill-opacity:0.76153846;fill-rule:evenodd;stroke:none;stroke-width:1;marker:none;visibility:visible;display:inline;overflow:visible;filter:url(#filter3940);enable-background:accumulate" />
  <g
     id="g3067"
     transform="matrix(1.5422697,0,0,1.5320377,-14.000002,-19.682411)">
    <path
       style="fill:url(#linearGradient3073);fill-opacity:1;stroke:#888a85;stroke-width:0.38045818;stroke-linecap:round;stroke-linejoin:miter;stroke-miterlimit:4;stroke-opacity:1;stroke-dasharray:none;stroke-dashoffset:0.7"
       id="path6195"
       d="m 29.25,23.190229 c -0.145125,0 -0.287523,0.0141 -0.430212,0.02366 L 28.50908,24.38492 c -0.191096,0.02735 -0.377924,0.05896 -0.561665,0.106458 l -0.71702,-0.969947 c -0.271954,0.09105 -0.53478,0.205839 -0.788721,0.331201 l 0,0.378516 0.119503,0.851661 c -0.143509,0.08851 -0.284143,0.183408 -0.418261,0.283887 l -1.039678,-0.615089 c -0.216154,0.187481 -0.420907,0.376727 -0.609467,0.591432 l 0,0.378515 0.501914,0.851661 c -0.06505,0.09381 -0.132876,0.185699 -0.191205,0.283887 l -1.206983,-0.189258 c -0.127028,0.253682 -0.230906,0.520789 -0.322659,0.792518 l 0,0.378516 0.896274,0.662403 c -0.01645,0.07706 -0.02491,0.157613 -0.03585,0.236572 L 22.96413,29.02174 c -0.0091,0.137394 -0.0239,0.274333 -0.0239,0.414002 0.01941,0.126454 0,0.252051 0,0.378516 0,0.147625 0.01371,0.292585 0.0239,0.437659 l 1.183082,0.295716 c 0.01121,0.07673 0.03439,0.149322 0.0478,0.224743 l -0.908225,0.662403 0,0.378516 c 0.09171,0.267779 0.196631,0.530572 0.322659,0.780689 l 1.206983,-0.1656 c 0.06004,0.09943 0.134621,0.189597 0.203155,0.283887 l -0.513864,0.828003 c 0.04491,0.05086 0.0974,0.09294 0.143404,0.141944 l -0.143403,0.236572 c 0.190924,0.216223 0.3905,0.414854 0.609466,0.60326 l 1.063579,-0.615088 c 0.130834,0.09636 0.266395,0.187796 0.406311,0.272058 l -0.131454,0.851661 c 0.01924,0.0094 0.04038,0.01444 0.05975,0.02366 l -0.05975,0.354859 c 0.252954,0.124096 0.517989,0.22927 0.788722,0.319372 l 0.74092,-0.969947 c 0.180309,0.0453 0.36242,0.08052 0.549715,0.106458 l 0.298758,1.171034 c 0.138807,0.009 0.277155,0.02366 0.418261,0.02366 0.149143,0 0.295595,-0.01356 0.442162,-0.02366 L 29.99092,34.86508 c 0.187152,-0.02678 0.369605,-0.06034 0.549715,-0.106458 l 0.717019,0.969947 c 0.275745,-0.09177 0.543397,-0.204193 0.800672,-0.331201 l -0.0478,-0.354859 c 0.01594,-0.0077 0.03194,-0.01583 0.0478,-0.02366 l -0.119503,-0.851661 c 0.143509,-0.08851 0.284143,-0.183408 0.418261,-0.283887 l 1.039678,0.626917 c 0.218448,-0.18898 0.419123,-0.386523 0.609467,-0.603259 l -0.143404,-0.236573 c 0.04601,-0.04899 0.09863,-0.09097 0.143404,-0.141943 L 33.504315,32.68861 c 0.06501,-0.09392 0.132759,-0.185943 0.191205,-0.283887 l 1.195033,0.189258 c 0.128315,-0.254654 0.241894,-0.519581 0.334609,-0.792517 l 0,-0.378516 -0.920175,-0.68606 c 0.01326,-0.07152 0.03749,-0.14001 0.0478,-0.212916 l 1.183083,-0.283884 c 0.0097,-0.141236 0.0239,-0.282183 0.0239,-0.42583 -0.01934,-0.126459 0,-0.252057 0,-0.378516 0,-0.143647 -0.01424,-0.284594 -0.0239,-0.42583 l -1.183082,-0.295716 c -0.01103,-0.07676 -0.03431,-0.14934 -0.0478,-0.224744 l 0.920175,-0.662403 0,-0.378516 c -0.09157,-0.269557 -0.208302,-0.528946 -0.33461,-0.780689 L 33.68357,26.833445 C 33.62336,26.733282 33.561299,26.63235 33.492365,26.537729 l 0.501913,-0.828003 0,-0.378516 C 33.805144,25.117014 33.60148,24.926691 33.384812,24.739779 l -1.051628,0.615088 c -0.134949,-0.100054 -0.27432,-0.195599 -0.418262,-0.283887 l 0.131454,-0.839832 0,-0.378516 C 31.792043,23.72761 31.529985,23.612065 31.257654,23.521431 l -0.728969,0.969947 c -0.187686,-0.04761 -0.378348,-0.07986 -0.573616,-0.106458 l -0.286808,-1.171034 c -0.138807,-0.009 -0.277155,-0.02366 -0.418261,-0.02366 z m 0,3.785159 c 1.519795,0 2.75888,1.169491 2.856127,2.649612 -0.09725,1.480121 -1.336332,2.649612 -2.856127,2.649612 -1.519795,0 -2.75888,-1.169491 -2.856127,-2.649612 0.09725,-1.480121 1.336332,-2.649612 2.856127,-2.649612 z"
       inkscape:connector-curvature="0" />
    <path
       style="fill:url(#linearGradient3075);fill-opacity:1;stroke:none"
       id="path6805"
       transform="matrix(0.38241036,0,0,0.37851594,19.689741,22.622455)"
       d="m 24.5625,3.125 c -0.142235,0.041537 -0.24942,0.1661509 -0.28125,0.3125 l -0.625,2.375 C 23.59427,6.0547043 23.386207,6.2103954 23.15625,6.25 22.676207,6.319405 22.209297,6.4112999 21.75,6.53125 21.508607,6.592354 21.270165,6.474488 21.125,6.28125 L 19.71875,4.375 c -0.108114,-0.1520405 -0.326048,-0.1924206 -0.5,-0.125 -0.192085,0.077324 -0.388731,0.1738554 -0.625,0.28125 -0.149188,0.066678 -0.252109,0.2136369 -0.25,0.375 l 0,0.03125 0.34375,2.375 c 0.03243,0.2373995 -0.06931,0.4926061 -0.28125,0.625 -0.370879,0.2216741 -0.735506,0.4511116 -1.09375,0.71875 a 0.1250125,0.1250125 0 0 1 0,0.03125 c -0.01189,0.00891 -0.01933,0.02226 -0.03125,0.03125 a 0.1250125,0.1250125 0 0 1 0,0.03125 0.1250125,0.1250125 0 0 1 -0.03125,0 c -0.202879,0.1573792 -0.468355,0.1661404 -0.6875,0.03125 a 0.1250125,0.1250125 0 0 1 -0.03125,0 0.1250125,0.1250125 0 0 1 0,-0.03125 L 16.5,8.75 a 0.1250125,0.1250125 0 0 1 0,-0.03125 l -2,-1.1875 C 14.335891,7.4347056 14.130512,7.4863669 14,7.625 13.835386,7.7789546 13.702999,7.9198171 13.5625,8.0625 13.43577,8.1891147 13.415996,8.3730252 13.5,8.53125 l -0.03125,0 1.21875,2.125 c 0.117846,0.209785 0.109343,0.461785 -0.03125,0.65625 -0.266417,0.35803 -0.524958,0.717623 -0.75,1.09375 -2.34e-4,0.008 -2.34e-4,0.02328 0,0.03125 -0.0044,0.0074 0.0044,0.02387 0,0.03125 A 0.1250125,0.1250125 0 0 1 13.875,12.5 c -0.12848,0.22405 -0.383919,0.317003 -0.625,0.28125 l -2.34375,-0.375 c -0.189603,-0.03822 -0.36166,0.07207 -0.4375,0.25 -0.08693,0.205249 -0.166732,0.402105 -0.25,0.625 -0.06742,0.173951 -0.02704,0.391886 0.125,0.5 l 1.9375,1.4375 c 0.20316,0.142597 0.305661,0.385551 0.25,0.625 -0.116313,0.458256 -0.24596,0.909216 -0.3125,1.375 -10e-4,0.0098 0.0015,0.02146 0,0.03125 -0.03503,0.234 -0.194008,0.466556 -0.4375,0.53125 L 9.4375,18.3125 c -0.1784059,0.04311 -0.3068212,0.191547 -0.3125,0.375 -0.00578,0.118793 0,0.241645 0,0.3125 0,0.0918 -0.00663,0.236379 0,0.375 0.015861,0.174285 0.1422388,0.303279 0.3125,0.34375 l 2.375,0.59375 c 0.241666,0.06317 0.404356,0.261605 0.4375,0.5 0.06951,0.480797 0.161647,0.97953 0.28125,1.4375 0.0611,0.241393 -0.05676,0.479835 -0.25,0.625 l -1.875,1.40625 c -0.15204,0.108114 -0.192421,0.326049 -0.125,0.5 0.08367,0.218648 0.157018,0.410977 0.25,0.625 0.07359,0.167841 0.224863,0.276186 0.40625,0.25 l 2.375,-0.34375 c 0.237399,-0.03243 0.492606,0.06931 0.625,0.28125 0.221674,0.370879 0.451112,0.735506 0.71875,1.09375 0.0036,0.0048 0.02766,-0.0048 0.03125,0 a 0.1250125,0.1250125 0 0 1 0.03125,0.03125 0.1250125,0.1250125 0 0 1 0.03125,0 0.1250125,0.1250125 0 0 1 0,0.03125 c 0.15738,0.202879 0.16614,0.468356 0.03125,0.6875 a 0.1250125,0.1250125 0 0 1 0,0.03125 0.1250125,0.1250125 0 0 1 -0.03125,0 L 14.6875,27.5 13.5,29.5 c -0.09655,0.164109 -0.04488,0.369488 0.09375,0.5 0.157058,0.163558 0.302965,0.310635 0.46875,0.46875 0.130512,0.138633 0.335891,0.190295 0.5,0.09375 l 2.125,-1.25 c 0.20395,-0.114569 0.437023,-0.104652 0.625,0.03125 0.35803,0.266417 0.717623,0.524958 1.09375,0.75 0.008,2.34e-4 0.02328,2.34e-4 0.03125,0 a 0.1250125,0.1250125 0 0 1 0.03125,0 A 0.1250125,0.1250125 0 0 1 18.5,30.125 c 0.22405,0.12848 0.317002,0.38392 0.28125,0.625 l -0.375,2.34375 c -0.03822,0.189603 0.07207,0.36166 0.25,0.4375 0.220335,0.09487 0.408838,0.147939 0.59375,0.21875 0.173951,0.06742 0.391886,0.02704 0.5,-0.125 l 1.46875,-1.9375 c 0.145165,-0.193238 0.383607,-0.311104 0.625,-0.25 0.442971,0.112433 0.929781,0.245832 1.40625,0.3125 0.238395,0.03314 0.436835,0.195834 0.5,0.4375 l 0.59375,2.375 c 0.04047,0.170261 0.169465,0.296639 0.34375,0.3125 0.118794,0.0058 0.241645,0 0.3125,0 0.0918,0 0.236376,0.0066 0.375,0 0.174285,-0.01586 0.303279,-0.142239 0.34375,-0.3125 l 0.59375,-2.375 c 0.06317,-0.241666 0.261605,-0.404356 0.5,-0.4375 0.463909,-0.06707 0.951657,-0.163642 1.40625,-0.28125 0.241393,-0.0611 0.479835,0.05676 0.625,0.25 L 30.25,33.625 c 0.108114,0.15204 0.326049,0.192421 0.5,0.125 0.206927,-0.08139 0.411779,-0.140602 0.65625,-0.25 0.167841,-0.07359 0.276186,-0.224863 0.25,-0.40625 L 31.3125,30.6875 c -0.03243,-0.237399 0.06931,-0.492606 0.28125,-0.625 0.370879,-0.221674 0.735506,-0.451112 1.09375,-0.71875 0.0048,-0.0036 -0.0048,-0.02766 0,-0.03125 a 0.1250125,0.1250125 0 0 1 0.03125,-0.03125 0.1250125,0.1250125 0 0 1 0,-0.03125 0.1250125,0.1250125 0 0 1 0.03125,0 c 0.202879,-0.15738 0.468356,-0.16614 0.6875,-0.03125 a 0.1250125,0.1250125 0 0 1 0.03125,0 0.1250125,0.1250125 0 0 1 0,0.03125 0.1250125,0.1250125 0 0 1 0.03125,0.03125 0.1250125,0.1250125 0 0 1 0,0.03125 l 2,1.1875 c 0.164109,0.09654 0.369488,0.04488 0.5,-0.09375 0.179452,-0.17232 0.302944,-0.328081 0.4375,-0.46875 0.138633,-0.130512 0.190295,-0.335891 0.09375,-0.5 L 35.3125,27.375 c -0.124499,-0.211651 -0.115196,-0.460669 0.03125,-0.65625 0.285923,-0.382783 0.550043,-0.796065 0.78125,-1.1875 0.126438,-0.204673 0.352849,-0.321157 0.59375,-0.28125 l 2.34375,0.375 c 0.189603,0.03822 0.36166,-0.07207 0.4375,-0.25 0.09873,-0.22172 0.16762,-0.415561 0.25,-0.625 0.06742,-0.173951 0.02704,-0.391886 -0.125,-0.5 l -1.9375,-1.46875 c -0.193238,-0.145165 -0.311104,-0.383607 -0.25,-0.625 0.112433,-0.442971 0.245832,-0.929781 0.3125,-1.40625 0.03314,-0.238395 0.195834,-0.436835 0.4375,-0.5 l 2.375,-0.53125 c 0.178406,-0.04311 0.306821,-0.191547 0.3125,-0.375 0.0062,-0.128704 0,-0.262622 0,-0.34375 0,-0.08113 0.0062,-0.215046 0,-0.34375 -0.01586,-0.174285 -0.142239,-0.303279 -0.3125,-0.34375 l -2.375,-0.59375 c -0.241666,-0.06317 -0.404356,-0.261605 -0.4375,-0.5 -0.06797,-0.477851 -0.162038,-0.97671 -0.28125,-1.4375 -0.0611,-0.241393 0.05676,-0.479835 0.25,-0.625 L 39.625,13.75 c 0.15204,-0.108114 0.192421,-0.326049 0.125,-0.5 -0.07598,-0.188797 -0.175038,-0.391027 -0.28125,-0.625 -0.06668,-0.149188 -0.213637,-0.252109 -0.375,-0.25 -0.01008,1.32e-4 -0.02108,-8.88e-4 -0.03125,0 l -2.375,0.34375 c -0.237399,0.03243 -0.492606,-0.06931 -0.625,-0.28125 -0.220217,-0.370101 -0.450018,-0.733146 -0.71875,-1.09375 -0.0072,-0.0096 -0.05526,0.0097 -0.0625,0 a 0.1250125,0.1250125 0 0 1 0,-0.03125 0.1250125,0.1250125 0 0 1 -0.03125,0 0.1250125,0.1250125 0 0 1 0,-0.03125 c -0.15738,-0.202879 -0.16614,-0.468356 -0.03125,-0.6875 a 0.1250125,0.1250125 0 0 1 0,-0.03125 0.1250125,0.1250125 0 0 1 0.03125,0 0.1250125,0.1250125 0 0 1 0.03125,-0.03125 l 0.03125,0 1.1875,-2 c 0.09654,-0.1641085 0.04488,-0.3694882 -0.09375,-0.5 C 36.240698,7.8633377 36.088583,7.7346016 35.9375,7.59375 35.806988,7.4551169 35.601609,7.4034556 35.4375,7.5 l -2,1.1875 -0.03125,0.03125 a 0.1250125,0.1250125 0 0 1 0,0.03125 0.1250125,0.1250125 0 0 1 -0.03125,0 C 33.155856,8.8848909 32.890379,8.8761294 32.6875,8.71875 a 0.1250125,0.1250125 0 0 1 -0.03125,0 0.1250125,0.1250125 0 0 1 0,-0.03125 c -0.0071,-0.00535 -0.02414,0.00534 -0.03125,0 a 0.1250125,0.1250125 0 0 1 0,-0.03125 C 32.62,8.65251 32.63,8.628738 32.625,8.625 32.257705,8.3491363 31.895581,8.0901992 31.53125,7.875 31.335583,7.7541252 31.224487,7.5415669 31.25,7.3125 c 2.34e-4,-0.00797 2.34e-4,-0.023283 0,-0.03125 a 0.1250125,0.1250125 0 0 1 0,-0.03125 l 0.34375,-2.3125 c 8.88e-4,-0.010174 -1.32e-4,-0.021165 0,-0.03125 0.0021,-0.1613631 -0.100812,-0.3083223 -0.25,-0.375 C 31.132432,4.4357415 30.94363,4.3279216 30.75,4.25 30.576048,4.1825794 30.358114,4.2229595 30.25,4.375 l -1.4375,1.90625 c -0.142597,0.20316 -0.385551,0.3056608 -0.625,0.25 C 27.754132,6.4201946 27.281381,6.3200463 26.78125,6.25 26.77145,6.24895 26.75979,6.25147 26.75,6.25 26.516001,6.2149681 26.283444,6.0559915 26.21875,5.8125 L 25.6875,3.4375 C 25.64439,3.2590938 25.495953,3.1306786 25.3125,3.125 c -0.118794,-0.00579 -0.241645,0 -0.3125,0 -0.08936,0 -0.233856,-0.0073 -0.375,0 -0.008,-4.689e-4 -0.02328,0 -0.03125,0 -0.008,0 -0.02329,-4.689e-4 -0.03125,0 z M 25,10.90625 c 4.469066,0 8.09375,3.624685 8.09375,8.09375 -2e-6,4.469063 -3.624685,8.09375 -8.09375,8.09375 -4.469066,1e-6 -8.09375,-3.624686 -8.09375,-8.09375 -1e-6,-4.469066 3.624683,-8.09375 8.09375,-8.09375 z"
       inkscape:connector-curvature="0" />
    <path
       d="m 34.986126,31.778332 c 3.36e-4,0.875862 -0.941421,1.586022 -2.103253,1.586022 -1.161832,0 -2.103589,-0.71016 -2.103253,-1.586022 -3.36e-4,-0.875861 0.941421,-1.586021 2.103253,-1.586021 1.161832,0 2.103589,0.71016 2.103253,1.586021 l 0,0 z"
       id="path7668"
       style="opacity:0.2;fill:url(#radialGradient3077);fill-opacity:1;stroke:none"
       inkscape:connector-curvature="0" />
    <path
       d="m 27.720314,31.778332 c 3.36e-4,0.875862 -0.941421,1.586022 -2.103253,1.586022 -1.161832,0 -2.103589,-0.71016 -2.103253,-1.586022 -3.36e-4,-0.875861 0.941421,-1.586021 2.103253,-1.586021 1.161832,0 2.103589,0.71016 2.103253,1.586021 l 0,0 z"
       id="path7670"
       style="opacity:0.2;fill:url(#radialGradient3079);fill-opacity:1;stroke:none"
       inkscape:connector-curvature="0" />
  </g>
</svg>
