<?xml version="1.0" encoding="utf-8"?>
<!-- Generator: Adobe Illustrator 15.0.0, SVG Export Plug-In . SVG Version: 6.00 Build 0)  -->
<!DOCTYPE svg PUBLIC "-//W3C//DTD SVG 1.1//EN" "http://www.w3.org/Graphics/SVG/1.1/DTD/svg11.dtd">
<svg version="1.1" xmlns="http://www.w3.org/2000/svg" xmlns:xlink="http://www.w3.org/1999/xlink" x="0px" y="0px" width="65px"
	 height="65px" viewBox="0 0 65 65" enable-background="new 0 0 65 65" xml:space="preserve">
<g id="Ebene_3">
	<rect fill="#FFFFFF" width="65" height="65"/>
	<rect x="65" y="65" fill="#FFFFFF" width="0.625" height="0"/>
</g>
<g id="Ebene_2">
	<g>
		<linearGradient id="SVGID_1_" gradientUnits="userSpaceOnUse" x1="32.5005" y1="41.5693" x2="32.5005" y2="2.0651">
			<stop  offset="0" style="stop-color:#EE7B1D"/>
			<stop  offset="0.95" style="stop-color:#F19016;stop-opacity:0.8778"/>
		</linearGradient>
		<rect x="1.614" y="1.872" opacity="0.96" fill="url(#SVGID_1_)" enable-background="new    " width="61.771" height="39.697"/>
		
			<linearGradient id="SVGID_2_" gradientUnits="userSpaceOnUse" x1="42.5" y1="13.6318" x2="42.5" y2="-5.7794" gradientTransform="matrix(-1 0 0 -1 75 57.2539)">
			<stop  offset="0" style="stop-color:#EE7B1D"/>
			<stop  offset="0.95" style="stop-color:#F19016;stop-opacity:0.8778"/>
		</linearGradient>
		<rect x="1.614" y="43.622" opacity="0.96" fill="url(#SVGID_2_)" enable-background="new    " width="61.771" height="19.506"/>
		<g>
			<path fill="#FFFFFF" d="M21.236,36.606L14.795,8.721h5.577l4.067,19.155l4.932-19.155h6.479l4.73,19.478l4.141-19.478h5.484
				l-6.552,27.886h-5.779L32.5,15.759l-5.355,20.848H21.236z"/>
		</g>
		<g>
			<path fill="#FFFFFF" d="M7.606,59.047L4.851,47.992h2.386l1.74,7.594l2.111-7.594h2.771l2.024,7.722l1.771-7.722h2.347
				l-2.804,11.055h-2.473l-2.3-8.265l-2.291,8.265H7.606z"/>
			<path fill="#FFFFFF" d="M20.373,54.93c0-0.704,0.181-1.385,0.543-2.043c0.362-0.659,0.875-1.162,1.54-1.509
				c0.664-0.347,1.405-0.521,2.225-0.521c1.265,0,2.302,0.394,3.11,1.181s1.213,1.78,1.213,2.982c0,1.211-0.408,2.216-1.225,3.012
				c-0.816,0.797-1.844,1.195-3.083,1.195c-0.767,0-1.498-0.166-2.193-0.497c-0.696-0.332-1.225-0.818-1.587-1.459
				C20.554,56.63,20.373,55.85,20.373,54.93z M22.641,55.043c0,0.794,0.197,1.402,0.591,1.824c0.394,0.423,0.879,0.634,1.457,0.634
				c0.577,0,1.062-0.211,1.453-0.634c0.391-0.422,0.586-1.035,0.586-1.84c0-0.784-0.195-1.387-0.586-1.81
				c-0.392-0.422-0.876-0.633-1.453-0.633c-0.578,0-1.063,0.211-1.457,0.633C22.838,53.641,22.641,54.249,22.641,55.043z"/>
			<path fill="#FFFFFF" d="M30.752,59.047V47.992h3.74c1.418,0,2.342,0.056,2.772,0.166c0.661,0.166,1.215,0.526,1.661,1.082
				s0.67,1.273,0.67,2.153c0,0.679-0.129,1.249-0.386,1.711c-0.258,0.463-0.585,0.826-0.98,1.09c-0.396,0.264-0.8,0.438-1.209,0.524
				c-0.557,0.105-1.362,0.158-2.418,0.158h-1.52v4.17H30.752z M33.083,49.862v3.137h1.275c0.919,0,1.533-0.058,1.843-0.173
				c0.31-0.116,0.553-0.297,0.729-0.543s0.264-0.533,0.264-0.859c0-0.402-0.123-0.734-0.37-0.996
				c-0.247-0.261-0.559-0.425-0.938-0.49c-0.278-0.05-0.837-0.075-1.677-0.075H33.083z"/>
			<path fill="#FFFFFF" d="M46.337,56.498l2.205,0.354c-0.283,0.774-0.731,1.363-1.343,1.769c-0.611,0.404-1.377,0.606-2.296,0.606
				c-1.454,0-2.53-0.455-3.229-1.364c-0.552-0.729-0.827-1.649-0.827-2.76c0-1.327,0.362-2.367,1.087-3.118
				c0.725-0.752,1.641-1.128,2.748-1.128c1.245,0,2.227,0.394,2.945,1.181c0.72,0.787,1.063,1.992,1.032,3.615h-5.544
				c0.016,0.629,0.194,1.117,0.535,1.467s0.767,0.524,1.275,0.524c0.347,0,0.639-0.091,0.875-0.271
				C46.037,57.192,46.216,56.9,46.337,56.498z M46.463,54.356c-0.016-0.613-0.182-1.079-0.496-1.398
				c-0.315-0.319-0.698-0.479-1.149-0.479c-0.483,0-0.883,0.168-1.197,0.505c-0.315,0.337-0.47,0.794-0.465,1.372H46.463z"/>
			<path fill="#FFFFFF" d="M50.472,47.992h4.26c0.961,0,1.693,0.07,2.197,0.211c0.678,0.191,1.258,0.531,1.74,1.019
				c0.483,0.487,0.851,1.085,1.103,1.791s0.378,1.577,0.378,2.612c0,0.91-0.118,1.694-0.354,2.353
				c-0.289,0.805-0.701,1.456-1.237,1.953c-0.404,0.377-0.95,0.671-1.638,0.883c-0.515,0.155-1.202,0.233-2.063,0.233h-4.386V47.992
				z M52.803,49.862v7.322h1.74c0.65,0,1.12-0.035,1.409-0.105c0.378-0.091,0.691-0.244,0.941-0.46
				c0.249-0.217,0.453-0.572,0.61-1.067s0.236-1.17,0.236-2.024s-0.079-1.511-0.236-1.968c-0.157-0.458-0.378-0.814-0.662-1.071
				c-0.283-0.256-0.643-0.43-1.078-0.521c-0.326-0.07-0.964-0.105-1.914-0.105H52.803z"/>
		</g>
	</g>
</g>
</svg>
