<?xml version="1.0" encoding="utf-8"?>
<!-- Generator: Adobe Illustrator 13.0.0, SVG Export Plug-In . SVG Version: 6.00 Build 14948)  -->
<!DOCTYPE svg PUBLIC "-//W3C//DTD SVG 1.0//EN" "http://www.w3.org/TR/2001/REC-SVG-20010904/DTD/svg10.dtd">
<svg version="1.0"
	 id="svg2" xmlns:sodipodi="http://sodipodi.sourceforge.net/DTD/sodipodi-0.dtd" inkscape:version="0.48.2 r9819" sodipodi:docname="woped_community.svg" xmlns:svg="http://www.w3.org/2000/svg" xmlns:dc="http://purl.org/dc/elements/1.1/" xmlns:cc="http://creativecommons.org/ns#" xmlns:rdf="http://www.w3.org/1999/02/22-rdf-syntax-ns#" xmlns:inkscape="http://www.inkscape.org/namespaces/inkscape"
	 xmlns="http://www.w3.org/2000/svg" xmlns:xlink="http://www.w3.org/1999/xlink" x="0px" y="0px" width="200.254px"
	 height="204.675px" viewBox="0 0 200.254 204.675" enable-background="new 0 0 200.254 204.675" xml:space="preserve">
<sodipodi:namedview  inkscape:zoom="1.193336" inkscape:cy="156.9328" borderopacity="1" inkscape:cx="134.68382" inkscape:pageopacity="0" inkscape:pageshadow="2" inkscape:window-height="662" bordercolor="#666666" fit-margin-left="0" pagecolor="#ffffff" inkscape:window-width="1035" inkscape:window-x="0" inkscape:current-layer="layer1" guidetolerance="10" showgrid="false" fit-margin-right="0" objecttolerance="10" gridtolerance="10" inkscape:window-y="0" fit-margin-bottom="0" fit-margin-top="0" id="namedview3100" inkscape:window-maximized="0">
	</sodipodi:namedview>
<g id="layer1" transform="translate(-5.5622268,-4.7424273)">
	<path id="rect2995" opacity="0.89" fill="#FF7F2A" enable-background="new    " d="M26.104,4.742h138.948
		c10.916,0,19.766,8.85,19.766,19.766v133.277c0,10.917-8.85,19.766-19.766,19.766H26.104c-10.917,0-19.767-8.849-19.767-19.766
		V24.509C6.337,13.592,15.187,4.742,26.104,4.742z"/>
	<text transform="matrix(1 0 0 1 34.2971 118.3718)" fill="#FFFFFF" font-family="'Arial-BoldMT'" font-size="129.6183">W</text>
	<path id="rect3950" fill="#FFAD00" fill-opacity="0.9455" d="M22.774,131.943h145.219c9.253,0,16.753,7.501,16.753,16.753v16.264
		c0,9.251-7.5,16.753-16.753,16.753H22.774c-9.251,0-16.752-7.502-16.752-16.753v-16.264
		C6.022,139.444,13.523,131.943,22.774,131.943z"/>
	<rect id="rect3970" x="5.562" y="130.032" fill="#FFFFFF" fill-opacity="0.9455" width="180.254" height="1.729"/>
	<rect id="rect3972" x="5.907" y="131.76" fill="#FFAD00" fill-opacity="0.9455" width="179.032" height="30.067"/>
	<text transform="matrix(1 0 0 1 34.153 168.8181)" fill="#FFFFFF" font-family="'Arial-BoldMT'" font-size="36.0051">WoPeD</text>
	<path id="rect3997" fill-opacity="0.9455" d="M199,181.574l-141.188,18.84c-0.25,0.033-0.48-0.143-0.514-0.395l-4.045-30.312
		c-0.033-0.25,0.143-0.479,0.394-0.514l141.189-18.839c0.25-0.033,0.479,0.144,0.514,0.394l4.043,30.312
		C199.427,181.31,199.252,181.541,199,181.574z"/>
	<text transform="matrix(0.9912 -0.1323 0.1323 0.9912 67.0388 191.4978)" fill="#F9F9F9" font-family="'ArialMT'" font-size="20">COMMUNITY</text>
</g>
</svg>
