<?xml version="1.0" encoding="UTF-8" standalone="no"?>
<!-- Created with Inkscape (http://www.inkscape.org/) -->

<svg
   xmlns:osb="http://www.openswatchbook.org/uri/2009/osb"
   xmlns:dc="http://purl.org/dc/elements/1.1/"
   xmlns:cc="http://creativecommons.org/ns#"
   xmlns:rdf="http://www.w3.org/1999/02/22-rdf-syntax-ns#"
   xmlns:svg="http://www.w3.org/2000/svg"
   xmlns="http://www.w3.org/2000/svg"
   xmlns:xlink="http://www.w3.org/1999/xlink"
   xmlns:sodipodi="http://sodipodi.sourceforge.net/DTD/sodipodi-0.dtd"
   xmlns:inkscape="http://www.inkscape.org/namespaces/inkscape"
   width="48"
   height="48"
   id="svg2"
   version="1.1"
   inkscape:version="0.48.2 r9819"
   sodipodi:docname="Icon_TokenGame2.svg">
  <defs
     id="defs4">
    <linearGradient
       id="linearGradient5315">
      <stop
         id="stop5317"
         offset="0"
         style="stop-color:#007800;stop-opacity:1;" />
      <stop
         id="stop5319"
         offset="1"
         style="stop-color:#009600;stop-opacity:1;" />
    </linearGradient>
    <linearGradient
       id="linearGradient5256"
       osb:paint="solid">
      <stop
         style="stop-color:#000000;stop-opacity:1;"
         offset="0"
         id="stop5258" />
    </linearGradient>
    <linearGradient
       id="linearGradient3770"
       osb:paint="solid">
      <stop
         style="stop-color:#ff6900;stop-opacity:1;"
         offset="0"
         id="stop3772" />
    </linearGradient>
    <linearGradient
       inkscape:collect="always"
       xlink:href="#linearGradient5315"
       id="linearGradient5313"
       x1="6.4447989"
       y1="30.480165"
       x2="26.006351"
       y2="30.480165"
       gradientUnits="userSpaceOnUse" />
    <radialGradient
       inkscape:collect="always"
       xlink:href="#linearGradient3256"
       id="radialGradient3262"
       cx="25.455845"
       cy="39.161163"
       fx="25.455845"
       fy="39.161163"
       r="19.622213"
       gradientTransform="matrix(1,0,0,0.315315,0,26.813)"
       gradientUnits="userSpaceOnUse" />
    <linearGradient
       inkscape:collect="always"
       id="linearGradient3256">
      <stop
         style="stop-color:#000000;stop-opacity:1;"
         offset="0"
         id="stop3258" />
      <stop
         style="stop-color:#000000;stop-opacity:0;"
         offset="1"
         id="stop3260" />
    </linearGradient>
    <linearGradient
       inkscape:collect="always"
       xlink:href="#linearGradient3264"
       id="linearGradient3281"
       gradientUnits="userSpaceOnUse"
       x1="14.462892"
       y1="12.284524"
       x2="34.534348"
       y2="39.684914"
       gradientTransform="matrix(0.72106672,0,0,0.71359661,-0.54142959,1017.9054)" />
    <linearGradient
       id="linearGradient3264">
      <stop
         style="stop-color:#c9c9c9;stop-opacity:1;"
         offset="0"
         id="stop3266" />
      <stop
         id="stop3276"
         offset="0.25"
         style="stop-color:#f8f8f8;stop-opacity:1;" />
      <stop
         id="stop3272"
         offset="0.5"
         style="stop-color:#e2e2e2;stop-opacity:1;" />
      <stop
         style="stop-color:#b0b0b0;stop-opacity:1;"
         offset="0.75"
         id="stop3274" />
      <stop
         style="stop-color:#c9c9c9;stop-opacity:1;"
         offset="1"
         id="stop3268" />
    </linearGradient>
    <radialGradient
       r="19.622213"
       fy="39.161163"
       fx="25.455845"
       cy="39.161163"
       cx="25.455845"
       gradientTransform="matrix(1,0,0,0.315315,0,26.813)"
       gradientUnits="userSpaceOnUse"
       id="radialGradient3049"
       xlink:href="#linearGradient3256"
       inkscape:collect="always" />
  </defs>
  <sodipodi:namedview
     id="base"
     pagecolor="#ffffff"
     bordercolor="#666666"
     borderopacity="1.0"
     inkscape:pageopacity="0.0"
     inkscape:pageshadow="2"
     inkscape:zoom="5.6"
     inkscape:cx="-45.952274"
     inkscape:cy="33.72881"
     inkscape:document-units="px"
     inkscape:current-layer="layer1"
     showgrid="false"
     inkscape:window-width="1680"
     inkscape:window-height="988"
     inkscape:window-x="1272"
     inkscape:window-y="-8"
     inkscape:window-maximized="1" />
  <metadata
     id="metadata7">
    <rdf:RDF>
      <cc:Work
         rdf:about="">
        <dc:format>image/svg+xml</dc:format>
        <dc:type
           rdf:resource="http://purl.org/dc/dcmitype/StillImage" />
        <dc:title></dc:title>
      </cc:Work>
    </rdf:RDF>
  </metadata>
  <g
     inkscape:label="Ebene 1"
     inkscape:groupmode="layer"
     id="layer1"
     transform="translate(0,-1004.3622)">
    <path
       style="opacity:0.95999995;fill:none;stroke:#009600;stroke-width:0.04013393;stroke-linecap:butt;stroke-linejoin:bevel;stroke-miterlimit:4;stroke-opacity:1;stroke-dasharray:none;stroke-dashoffset:0"
       d=""
       id="path3950"
       inkscape:connector-curvature="0"
       transform="translate(0,1004.3622)" />
    <path
       style="opacity:0.95999995;fill:none;stroke:#009600;stroke-width:0.04013393;stroke-linecap:butt;stroke-linejoin:bevel;stroke-miterlimit:4;stroke-opacity:1;stroke-dasharray:none;stroke-dashoffset:0"
       d=""
       id="path3956"
       inkscape:connector-curvature="0"
       transform="translate(0,1004.3622)" />
    <path
       style="opacity:0.95999995;fill:none;stroke:#009600;stroke-width:0.04013393;stroke-linecap:butt;stroke-linejoin:bevel;stroke-miterlimit:4;stroke-opacity:1;stroke-dasharray:none;stroke-dashoffset:0"
       d=""
       id="path3958"
       inkscape:connector-curvature="0"
       transform="translate(0,1004.3622)" />
    <rect
       style="opacity:0.95999995000000005;fill:none;fill-opacity:1;stroke:#000000;stroke-width:1.30000000000000000;stroke-linecap:square;stroke-linejoin:miter;stroke-miterlimit:4;stroke-opacity:0.89999998;stroke-dasharray:none;stroke-dashoffset:0"
       id="rect3790"
       width="11.048544"
       height="11.364216"
       x="30.935923"
       y="5.1316514"
       transform="translate(0,1004.3622)" />
    <path
       sodipodi:type="arc"
       style="opacity:0.95999995000000005;fill:none;stroke:#000000;stroke-width:1.29999994999999990;stroke-linecap:square;stroke-linejoin:miter;stroke-miterlimit:4;stroke-opacity:0.90196079;stroke-dasharray:none;stroke-dashoffset:0"
       id="path5262"
       sodipodi:cx="11.522053"
       sodipodi:cy="10.876894"
       sodipodi:rx="5.5874062"
       sodipodi:ry="5.6821079"
       d="m 17.109459,10.876894 c 0,3.138142 -2.501567,5.682108 -5.587406,5.682108 -3.0858394,0 -5.5874064,-2.543966 -5.5874064,-5.682108 0,-3.1381416 2.501567,-5.6821079 5.5874064,-5.6821079 3.085839,0 5.587406,2.5439663 5.587406,5.6821079 z"
       transform="translate(0,1004.3622)" />
    <path
       transform="translate(25.095977,1029.9948)"
       sodipodi:type="arc"
       style="opacity:0.95999995000000005;fill:none;stroke:#000000;stroke-width:1.29999994999999990;stroke-linecap:square;stroke-linejoin:miter;stroke-miterlimit:4;stroke-opacity:0.90196079;stroke-dasharray:none;stroke-dashoffset:0"
       id="path5262-8"
       sodipodi:cx="11.522053"
       sodipodi:cy="10.876894"
       sodipodi:rx="5.5874062"
       sodipodi:ry="5.6821079"
       d="m 17.109459,10.876894 c 0,3.138142 -2.501567,5.682108 -5.587406,5.682108 -3.0858394,0 -5.5874064,-2.543966 -5.5874064,-5.682108 0,-3.1381416 2.501567,-5.6821079 5.5874064,-5.6821079 3.085839,0 5.587406,2.5439663 5.587406,5.6821079 z" />
    <path
       style="fill:none;stroke:#000000;stroke-width:1px;stroke-linecap:butt;stroke-linejoin:miter;stroke-opacity:0.58823532"
       d="m 17.109459,10.876894 13.763328,0.126269 z"
       id="path5293"
       inkscape:connector-curvature="0"
       transform="translate(0,1004.3622)" />
    <path
       style="fill:none;stroke:#000000;stroke-width:1px;stroke-linecap:butt;stroke-linejoin:miter;stroke-opacity:0.58823532"
       d="m 36.491761,16.748406 0.06313,13.763328 z"
       id="path5295"
       inkscape:connector-curvature="0"
       transform="translate(0,1004.3622)" />
    <path
       sodipodi:type="arc"
       style="opacity:0.40909089;color:#000000;fill:url(#radialGradient3049);fill-opacity:1;fill-rule:nonzero;stroke:none;stroke-width:1;marker:none;visibility:visible;display:inline;overflow:visible"
       id="path3254"
       sodipodi:cx="25.455845"
       sodipodi:cy="39.161163"
       sodipodi:rx="19.622213"
       sodipodi:ry="6.1871843"
       d="m 45.078058,39.161163 a 19.622213,6.1871843 0 1 1 -39.2444265,0 19.622213,6.1871843 0 1 1 39.2444265,0 z"
       transform="matrix(0.58059708,0,0,0.57458221,1.8643473,1023.4695)" />
    <path
       inkscape:connector-curvature="0"
       style="color:#000000;fill:url(#linearGradient3281);fill-opacity:1;fill-rule:nonzero;stroke:#808080;stroke-width:0.57758182;stroke-linecap:butt;stroke-linejoin:miter;stroke-miterlimit:4;stroke-opacity:1;stroke-dasharray:none;stroke-dashoffset:0;marker:none;visibility:visible;display:inline;overflow:visible"
       d="m 15.876411,1022.3169 c -0.270233,0.018 -0.532892,0.059 -0.798322,0.09 l -0.01815,0 -0.635028,3.4294 c -1.035045,0.2333 -2.008813,0.6292 -2.884842,1.1672 l -2.8485543,-2.029 c -0.7700382,0.5916 -1.4707668,1.2816 -2.0865203,2.029 l 1.977659,2.8549 c -0.6004724,0.9082 -1.0520232,1.9452 -1.3063441,3.0346 -4.36e-5,0.011 -3.49e-5,0.017 0,0.018 l -3.4472951,0.5386 c -0.063022,0.5096 -0.090714,1.036 -0.090714,1.5622 0,0.4306 0.012016,0.8554 0.054437,1.2749 l 3.4472951,0.6104 c 0.2451743,1.1847 0.7109166,2.2912 1.3607747,3.268 l -2.0502335,2.7832 c 0.587172,0.7213 1.2650581,1.3781 1.9958018,1.9571 l 2.9029857,-1.9751 c 1.014554,0.6405 2.147096,1.0896 3.37472,1.3108 l 0.54431,3.3936 c 0.386784,0.035 0.783428,0.036 1.179338,0.036 0.558932,0 1.092821,-0.021 1.632929,-0.089 l 0.653172,-3.4655 c 1.165584,-0.287 2.260537,-0.7851 3.211427,-1.4543 l 2.794124,2.011 c 0.724601,-0.6101 1.387207,-1.3114 1.959516,-2.0649 l -2.03209,-2.9089 c 0.55032,-0.9406 0.931643,-1.9783 1.124906,-3.0884 l 3.429152,-0.5386 c 0.03007,-0.3541 0.03629,-0.6977 0.03629,-1.0594 0,-0.6287 -0.07384,-1.2452 -0.163293,-1.8494 l -3.483582,-0.6285 c -0.272994,-0.9975 -0.720914,-1.9284 -1.2882,-2.7652 l 2.050234,-2.7831 c -0.635507,-0.7691 -1.360443,-1.4797 -2.159096,-2.0828 l -2.957416,2.0109 c -0.849992,-0.4974 -1.764704,-0.8792 -2.757837,-1.0952 l -0.544309,-3.4115 c -0.495423,-0.057 -0.994924,-0.09 -1.505924,-0.09 -0.138107,0 -0.280244,-0.011 -0.417304,0 -0.06681,0 -0.132937,-0.011 -0.19958,0 -0.01805,0 -0.03642,0 -0.05443,0 z m 0.471735,8.7263 c 0.06629,-0.011 0.132464,0 0.199579,0 2.147703,0 3.900888,1.7352 3.900888,3.8606 0,2.1254 -1.753186,3.8425 -3.900888,3.8425 -2.1477,0 -3.882742,-1.7171 -3.882742,-3.8425 0,-2.0591 1.628343,-3.7574 3.683163,-3.8606 z"
       id="path3243" />
    <path
       sodipodi:type="arc"
       style="opacity:0.64772728;color:#000000;fill:none;stroke:#ffffff;stroke-width:1.64875567;stroke-linecap:butt;stroke-linejoin:miter;stroke-miterlimit:4;stroke-opacity:1;stroke-dasharray:none;stroke-dashoffset:0;marker:none;visibility:visible;display:inline;overflow:visible"
       id="path3283"
       sodipodi:cx="23.511301"
       sodipodi:cy="23.781593"
       sodipodi:rx="12.727922"
       sodipodi:ry="12.727922"
       d="m 36.239223,23.781593 a 12.727922,12.727922 0 1 1 -25.455844,0 12.727922,12.727922 0 1 1 25.455844,0 z"
       transform="matrix(0.35214258,0,0,0.34849445,8.2707044,1026.6079)" />
    <path
       inkscape:connector-curvature="0"
       id="path3285"
       d="m 15.474514,1022.9956 -0.509873,3.3205 c -0.970177,0.2186 -2.754774,0.8875 -3.575901,1.3917 l -2.7125684,-2.0037 c -0.7217791,0.5546 -0.771278,0.5922 -1.3484418,1.2927 l 1.9612887,2.8786 c -0.5628403,0.8512 -1.238881,2.3682 -1.4816107,3.4521 0,0 -3.4367911,0.5734 -3.4367911,0.5734 -0.059078,0.4775 -0.030688,1.4995 0.00904,1.8927 l 3.2828364,0.5854 c 0.2298094,1.1104 1.0897992,2.8978 1.698928,3.8135 l -2.0759684,2.7143 c 0.5503744,0.6762 0.6605244,0.7381 1.345472,1.2807 l 2.7759313,-2.0127 c 0.950971,0.6004 2.838558,1.3308 3.989245,1.538 l 0.455587,3.2788 c 0.362544,0.033 1.364102,0.1242 1.870361,0.059 l 0.509873,-3.4131 c 1.092534,-0.2691 2.980297,-1.0359 3.871594,-1.6634 l 2.772964,1.9827 c 0.679189,-0.5717 0.685274,-0.6579 1.221714,-1.3642 l -2.054848,-2.8906 c 0.515831,-0.8817 1.182809,-2.6059 1.36396,-3.6463 l 3.364353,-0.5525 c 0.02818,-0.3319 0.02955,-1.2575 -0.05429,-1.824 l -3.427717,-0.5852 c -0.255884,-0.9351 -1.134029,-2.6202 -1.665762,-3.4045 l 2.178605,-2.7143 c -0.595677,-0.721 -0.817158,-0.8199 -1.565758,-1.3853 l -2.869492,2.0336 c -0.796723,-0.4664 -2.385449,-1.1773 -3.31634,-1.3798 l -0.506906,-3.2488 c -0.464373,-0.054 -1.804144,-0.03 -2.069524,0 z"
       style="opacity:0.34659089;color:#000000;fill:none;stroke:#ffffff;stroke-width:0.57758164;stroke-linecap:butt;stroke-linejoin:miter;stroke-miterlimit:4;stroke-opacity:1;stroke-dasharray:none;stroke-dashoffset:0;marker:none;visibility:visible;display:inline;overflow:visible"
       sodipodi:nodetypes="ccccccccccccccccccccccccccccccccc" />
  </g>
</svg>
