<?xml version="1.0" standalone="no"?>
<!DOCTYPE svg PUBLIC "-//W3C//DTD SVG 20010904//EN"
 "http://www.w3.org/TR/2001/REC-SVG-20010904/DTD/svg10.dtd">
<svg version="1.0" xmlns="http://www.w3.org/2000/svg"
 width="64.000000pt" height="64.000000pt" viewBox="0 0 64.000000 64.000000"
 preserveAspectRatio="xMidYMid meet">
<metadata>
Created by potrace 1.10, written by Peter Selinger 2001-2011
</metadata>
<g transform="translate(0.000000,64.000000) scale(0.100000,-0.100000)"
fill="#000000" stroke="none">
<path d="M35 600 c-35 -36 -37 -40 -17 -40 29 0 29 -27 0 -57 l-21 -23 36 0
c37 0 56 -13 36 -26 -8 -5 -9 -3 -4 7 5 8 -4 3 -19 -11 l-28 -25 31 -3 c17 -2
31 -6 31 -10 0 -3 -17 -23 -37 -44 l-37 -38 62 0 62 0 0 -70 c0 -56 3 -70 15
-70 12 0 15 -16 15 -85 l0 -85 155 0 155 0 0 155 0 155 77 0 78 0 -155 155
c-139 139 -156 153 -170 140 -21 -19 -29 -19 -50 0 -15 14 -19 13 -35 -5 l-18
-20 -22 20 -22 20 -18 -20 -18 -20 -22 20 -21 20 -39 -40z m320 -138 c-39 -3
-45 -6 -45 -26 0 -30 -5 -33 -40 -28 -27 4 -30 8 -30 38 0 33 2 34 37 34 l37
0 -57 58 c-54 55 -56 59 -40 75 17 16 22 13 101 -65 l83 -83 -46 -3z m175
-120 l-70 -3 0 -154 0 -155 -145 0 -145 0 2 83 2 82 3 -77 4 -78 134 0 135 0
0 155 0 154 68 4 67 3 -72 2 -73 2 0 -28 c0 -28 -2 -29 -50 -31 l-50 -1 0 60
0 60 57 0 58 0 -88 88 c-83 83 -86 88 -70 105 17 16 25 10 160 -125 l143 -143
-70 -3z"/>
</g>
</svg>
