<?xml version="1.0" encoding="utf-8"?>
<!-- Generator: Adobe Illustrator 15.0.0, SVG Export Plug-In . SVG Version: 6.00 Build 0)  -->
<!DOCTYPE svg PUBLIC "-//W3C//DTD SVG 1.1//EN" "http://www.w3.org/Graphics/SVG/1.1/DTD/svg11.dtd">
<svg version="1.1" id="Ebene_1" xmlns="http://www.w3.org/2000/svg" xmlns:xlink="http://www.w3.org/1999/xlink" x="0px" y="0px"
	 width="65px" height="65px" viewBox="0 0 65 65" enable-background="new 0 0 65 65" xml:space="preserve">
<line fill="none" stroke="#354F9A" stroke-width="2" stroke-miterlimit="10" x1="14.009" y1="17.17" x2="43.374" y2="47.701"/>
<line fill="none" stroke="#354F9A" stroke-width="2" stroke-miterlimit="10" x1="14.009" y1="47.7" x2="43.374" y2="17.17"/>
<rect x="3.359" y="6.52" fill="#FFFFFF" stroke="#000000" stroke-miterlimit="10" width="21.3" height="21.3"/>
<rect x="3.359" y="37.051" fill="#FFFFFF" stroke="#000000" stroke-miterlimit="10" width="21.3" height="21.3"/>
<circle fill="#FFFFFF" stroke="#000000" stroke-miterlimit="10" cx="43.374" cy="17.17" r="10.874"/>
<circle fill="#FFFFFF" stroke="#000000" stroke-miterlimit="10" cx="43.374" cy="47.701" r="10.874"/>
<g>
	<g>
		<path fill="none" stroke="#E42220" stroke-width="2" stroke-miterlimit="10" d="M59.717,20.466
			c4.39,5.668,4.304,17.237,0.537,23.311"/>
		<g>
			<path fill="#E42220" d="M53.265,17.17c2.344,2.778,4.963,6.737,6.119,10.017l1.012-5.984l4.606-3.951
				C61.596,17.952,56.853,17.748,53.265,17.17z"/>
		</g>
		<g>
			<path fill="#E42220" d="M54.161,47.701c2.056-2.998,4.266-7.198,5.09-10.576l1.604,5.853l4.977,3.472
				C62.372,46.094,57.674,46.769,54.161,47.701z"/>
		</g>
	</g>
</g>
</svg>
